<?xml version="1.0" encoding="UTF-8"?>
<svg width="144px" height="631px" viewBox="0 0 144 631" version="1.1" xmlns="http://www.w3.org/2000/svg" xmlns:xlink="http://www.w3.org/1999/xlink">
    <!-- Generator: Sketch 64 (93537) - https://sketch.com -->
    <title>Group</title>
    <desc>Created with Sketch.</desc>
    <g id="New" stroke="none" stroke-width="1" fill="none" fill-rule="evenodd" opacity="0.200000003">
        <g id="Projects" transform="translate(-1222.000000, -139.000000)" fill="#004876">
            <g id="Group" transform="translate(1598.500000, 452.233179) scale(-1, 1) rotate(-240.000000) translate(-1598.500000, -452.233179) translate(1210.000000, 64.233179)">
                <path d="M53.0570994,170.344342 L53.7079534,170.709344 C18.916291,232.535839 0.832937938,302.69911 1.41351196,373.613857 C1.99408599,444.461124 21.4310932,514.268595 57.6314116,575.487775 C93.8317299,636.710021 145.649489,687.417746 207.48979,722.132846 C268.422562,756.338782 337.458925,774.374194 407.329481,774.377261 C408.438683,774.377261 409.535662,774.371127 410.641809,774.361925 C481.578788,773.785282 551.470733,754.366543 612.767128,718.212904 L613.146029,718.857026 C551.739631,755.078144 481.716292,774.530623 410.64792,775.1134 C409.544829,775.125669 408.435627,775.125669 407.329481,775.125669 C337.324476,775.125669 268.171998,757.056518 207.123112,722.786169 C145.169752,688.006657 93.2511558,637.203848 56.9866688,575.87118 C20.7221818,514.538513 1.24545106,444.59915 0.664877035,373.619991 C0.0812473571,302.573353 18.1982126,232.281257 53.0570994,170.344342 Z M406.03144,0.300778446 C469.793746,0.300778446 532.773805,16.7565577 588.377519,47.9719287 C644.806258,79.650454 692.089429,125.919873 725.121036,181.783639 C758.149586,237.644338 775.890706,301.341853 776.419334,365.987148 C776.947962,430.696854 760.447437,494.719497 728.702261,551.129234 C696.984585,607.486827 650.657833,654.713227 594.727165,687.704534 C538.796497,720.692773 475.018912,738.409191 410.294075,738.936758 C409.288766,738.952094 408.274289,738.952094 407.268979,738.952094 C343.506673,738.952094 280.526614,722.496314 224.9229,691.280943 C168.497216,659.602418 121.21099,613.329932 88.1793834,557.469233 C55.1508326,501.608534 37.4127683,437.911019 36.8810847,373.262657 C36.3524568,308.552951 52.8529818,244.533375 84.601214,188.123638 C116.315834,131.766045 162.645641,84.5396455 218.573254,51.5514058 C274.506978,18.5600988 338.281507,0.843681136 403.009399,0.31611468 C404.011653,0.300778446 405.029186,0.300778446 406.03144,0.300778446 Z M406.03144,1.7975949 C405.02613,1.7975949 404.023876,1.7975949 403.021622,1.80986389 C338.556515,2.33743034 275.038661,19.9833014 219.337167,52.8396495 C163.632617,85.6929303 117.49226,132.729161 85.9059777,188.85671 C54.2860829,245.039471 37.8527823,308.801398 38.3814103,373.253455 C38.9069825,437.634967 56.5747668,501.074833 89.4719245,556.711623 C122.366027,612.345346 169.459747,658.427663 225.656257,689.974296 C281.033852,721.06391 343.769459,737.455277 407.268979,737.455277 C408.274289,737.455277 409.276543,737.455277 410.281853,737.439941 C474.743904,736.915442 538.258702,719.272638 593.963252,686.413223 C649.667802,653.556875 695.808159,606.523712 727.394441,550.396162 C759.014336,494.213402 775.447637,430.448407 774.922064,366.002484 C774.393436,301.617906 756.725652,238.178039 723.828494,182.544316 C690.934392,126.907526 643.840672,80.8252096 587.644162,49.2755086 C532.266567,18.188962 469.534016,1.7975949 406.03144,1.7975949 Z M403.366299,36.4869297 L403.384633,38.7321544 C345.394455,39.2045104 288.250693,55.0775128 238.137987,84.6365705 C188.028338,114.195628 146.520351,156.508298 118.10278,207.001316 C89.6577082,257.543409 74.8744601,314.907059 75.3480863,372.887226 C75.8217125,430.809115 91.7141625,487.87831 121.311215,537.929644 C150.905212,587.980978 193.268782,629.437886 243.824557,657.816054 C293.64392,685.786277 350.078771,700.530533 407.207255,700.530533 C408.108673,700.530533 409.013146,700.527466 409.917619,700.521331 L409.935953,702.763489 C409.028424,702.775758 408.111728,702.775758 407.207255,702.775758 C349.690703,702.775758 292.880007,687.93335 242.721467,659.772957 C191.823458,631.201553 149.169601,589.462458 119.373931,539.07066 C89.5813169,488.681929 73.5788633,431.223194 73.1021815,372.90563 C72.622444,314.535922 87.5095843,256.785799 116.144106,205.900174 C144.754183,155.063625 186.54329,112.462634 236.995173,82.704205 C287.450112,52.9457762 344.978886,36.9654202 403.366299,36.4869297 Z" id="Combined-Shape"></path>
            </g>
        </g>
    </g>
</svg>