<?xml version="1.0" encoding="UTF-8"?>
<svg width="173px" height="171px" viewBox="0 0 173 171" version="1.1" xmlns="http://www.w3.org/2000/svg" xmlns:xlink="http://www.w3.org/1999/xlink">
    <!-- Generator: Sketch 64 (93537) - https://sketch.com -->
    <title>Group 16</title>
    <desc>Created with Sketch.</desc>
    <g id="New" stroke="none" stroke-width="1" fill="none" fill-rule="evenodd">
        <g id="Home-" transform="translate(-562.000000, -856.000000)" fill="#DBDCDD">
            <g id="Group-16" transform="translate(562.000000, 856.000000)">
                <ellipse id="Oval-Copy-2" cx="86" cy="85" rx="39.5" ry="39"></ellipse>
                <path d="M86.2117577,170.388166 C71.3708957,170.388166 56.7124225,166.593061 43.7709586,159.3923 C30.6354888,152.08522 19.6294359,141.411777 11.9400688,128.525292 C4.25186338,115.638807 0.123141398,100.94491 -1.27897692e-13,86.0314412 L2.84735441,86.0083285 C2.96584896,100.424874 6.95748901,114.632249 14.3924414,127.092305 C21.826232,139.551204 32.4675076,149.871024 45.1661738,156.93542 C57.8799424,164.007906 72.3014265,167.688603 86.8913588,167.567261 C101.459219,167.449386 115.812162,163.498271 128.399304,156.139188 C140.987607,148.78126 151.413966,138.248804 158.552682,125.680119 C165.697207,113.09641 169.41236,98.8150744 169.292703,84.380039 C169.174209,69.9623381 165.181407,55.7549627 157.747616,43.2960629 C150.313826,30.8371632 139.67255,20.5173436 126.972722,13.4517919 C114.260115,6.37930632 99.8223673,2.70092046 85.2475373,2.82110649 C70.6808392,2.93898125 56.327896,6.89009694 43.7395923,14.2480243 C31.1524504,21.6059517 20.7249297,32.1395637 13.5873754,44.7082488 L11.1059601,43.3272651 C18.4886354,30.3263725 29.2728015,19.4322024 42.2909384,11.821191 C55.3113987,4.21133526 70.1569074,0.125010284 85.2243031,0.00251298563 C100.31958,-0.111894869 115.223174,3.68205448 128.369099,10.9949121 C141.503407,18.3031471 152.510622,28.976591 160.198827,41.8630757 C167.888194,54.7495604 172.016916,69.4423024 172.140058,84.3569263 C172.264361,99.2831066 168.423743,114.049809 161.034098,127.061102 C153.651422,140.061995 142.867256,150.956165 129.847958,158.567177 C116.828659,166.177032 101.98315,170.263357 86.9157547,170.385855 C86.681089,170.388166 86.4452616,170.388166 86.2117577,170.388166" id="Fill-22"></path>
                <path d="M86.1879426,157.040814 C73.6751501,157.040814 61.3122184,153.839705 50.3991024,147.769155 C39.3210234,141.604999 30.0389501,132.603759 23.5542776,121.736168 C17.0707668,110.868577 13.5879563,98.4767045 13.484564,85.8987744 C13.38001,73.3127548 16.6188611,60.8596332 22.8502805,49.8868799 C29.0758914,38.9233716 38.1709292,29.7349186 49.1502628,23.3176781 C60.1295963,16.8992819 72.6505207,13.4531786 85.3584807,13.3491715 C85.5548099,13.3468602 85.7534626,13.3468602 85.9509535,13.3468602 C98.4660694,13.3468602 110.826678,16.5479689 121.740955,22.6196746 L119.926362,25.8138494 C109.403581,19.9594031 97.4693211,16.9235502 85.3886852,17.0136897 C73.3324453,17.1119187 61.4527855,20.3823654 51.0333968,26.4725613 C40.6140081,32.5627572 31.9848165,41.2797112 26.0763528,51.6827365 C20.1620806,62.0984738 17.0870307,73.9206187 17.1857762,85.8687279 C17.2845217,97.8018137 20.5895903,109.560399 26.7420134,119.873285 C32.8955982,130.185015 41.7025316,138.726312 52.2125338,144.573825 C62.5726752,150.338132 74.3094445,153.376296 86.1879426,153.376296 C86.3761398,153.376296 86.5631753,153.376296 86.7513726,153.373984 L86.7815771,157.038503 C86.5840861,157.040814 86.3854335,157.040814 86.1879426,157.040814" id="Fill-24"></path>
            </g>
        </g>
    </g>
</svg>