<?xml version="1.0" encoding="UTF-8"?>
<svg width="478px" height="478px" viewBox="0 0 478 478" version="1.1" xmlns="http://www.w3.org/2000/svg" xmlns:xlink="http://www.w3.org/1999/xlink">
    <!-- Generator: Sketch 64 (93537) - https://sketch.com -->
    <title>Group</title>
    <desc>Created with Sketch.</desc>
    <g id="New" stroke="none" stroke-width="1" fill="none" fill-rule="evenodd" opacity="0.200000003">
        <g id="Group" transform="translate(247.000000, 235.000000) scale(-1, 1) rotate(-210.000000) translate(-247.000000, -235.000000) translate(8.000000, -4.000000)" fill="#004876">
            <path d="M32.2933852,104.934956 L32.6935723,105.159659 C11.3014076,143.22147 0.182592306,186.415591 0.539566775,230.072338 C0.896541243,273.687543 12.8476707,316.662625 35.1059682,354.350559 C57.3642657,392.04038 89.2251765,423.25722 127.248594,444.628633 C164.714004,465.686593 207.162026,476.789607 250.122964,476.791495 C250.804973,476.791495 251.479467,476.787718 252.159597,476.782053 C295.77624,476.427059 338.75033,464.472437 376.439319,442.215427 L376.672291,442.611963 C338.915666,464.910515 295.860787,476.885908 252.163354,477.244679 C251.485103,477.252232 250.803094,477.252232 250.122964,477.252232 C207.079358,477.252232 164.559941,466.128448 127.023136,445.030834 C88.9302028,423.619767 57.0072913,392.344391 34.7095387,354.586592 C12.4117861,316.828793 0.43623206,273.772515 0.0792575915,230.076115 C-0.27959569,186.338172 10.8598865,143.064743 32.2933852,104.934956 Z M249.324844,0.252232084 C288.530034,0.252232084 327.254249,10.3827878 361.443009,29.5996872 C396.139049,49.101715 425.211801,77.5862318 445.521769,111.97725 C465.829859,146.366379 476.738247,185.580033 477.063282,225.377161 C477.388316,265.213942 467.242726,304.627752 447.723738,339.354881 C428.221659,374.04991 399.736976,403.123567 365.347182,423.433773 C330.957389,443.742091 291.742805,454.648725 251.945788,454.973507 C251.327658,454.982948 250.703893,454.982948 250.085763,454.982948 C210.880572,454.982948 172.156358,444.852392 137.967598,425.635493 C103.273437,406.133465 74.1988059,377.64706 53.8888375,343.257931 C33.5807478,308.868801 22.6742384,269.655148 22.3473249,229.856131 C22.0222903,190.01935 32.1678805,150.607428 51.6887474,115.880299 C71.1889475,81.1852698 99.6755101,52.1116135 134.063424,31.8032955 C168.455096,11.4930891 207.667802,0.586455449 247.466698,0.261673422 C248.082948,0.252232084 248.708593,0.252232084 249.324844,0.252232084 Z M249.324844,1.17370667 C248.706714,1.17370667 248.090464,1.17370667 247.474213,1.18125974 C207.836895,1.50604177 168.78201,12.3692453 134.533128,32.5963679 C100.282367,52.8216022 71.9122905,81.7781859 52.4910006,116.331595 C33.0490437,150.918992 22.9447875,190.172299 23.2698221,229.850467 C23.592978,269.485204 34.4562747,308.540242 54.6835754,342.791528 C74.9089972,377.040926 103.865263,405.410259 138.418513,424.831091 C172.468241,443.970571 211.04215,454.061474 250.085763,454.061474 C250.703893,454.061474 251.320143,454.061474 251.938273,454.052032 C291.573712,453.729138 330.626718,442.867823 364.877479,422.638812 C399.12824,402.41169 427.498316,373.456994 446.919606,338.903585 C466.361563,304.316188 476.465819,265.060993 476.142663,225.386602 C475.817629,185.749977 464.954332,146.694938 444.727031,112.44554 C424.50161,78.194254 395.545344,49.8249215 360.992094,30.4022009 C326.942366,11.2646087 288.370335,1.17370667 249.324844,1.17370667 Z M247.686143,22.529258 L247.697416,23.9114698 C212.041303,24.2022631 176.905621,33.9740479 146.093088,52.1712828 C115.282434,70.3685177 89.7606382,96.4171693 72.2876773,127.501831 C54.7978072,158.616704 45.7081099,193.931085 45.9993259,229.625007 C46.290542,265.283053 56.0622483,300.41616 74.260431,331.228911 C92.4567348,362.041661 118.504598,387.563486 149.589559,405.033738 C180.221726,422.25285 214.921523,431.329753 250.047811,431.329753 C250.602061,431.329753 251.158189,431.327865 251.714318,431.324088 L251.725591,432.704412 C251.167584,432.711965 250.60394,432.711965 250.047811,432.711965 C214.682914,432.711965 179.752023,423.574638 148.911308,406.238453 C117.61592,388.64924 91.389569,362.953695 73.0692635,331.931346 C54.7508369,300.910886 44.9114932,265.537969 44.6183984,229.636337 C44.3234248,193.702604 53.4770017,158.150302 71.0833582,126.823943 C88.6746843,95.5277952 114.369331,69.3016465 145.390412,50.9816742 C176.413372,32.6617019 211.785784,22.8238277 247.686143,22.529258 Z" id="Combined-Shape"></path>
        </g>
    </g>
</svg>