<?xml version="1.0" encoding="UTF-8"?>
<svg width="234px" height="216px" viewBox="0 0 234 216" version="1.1" xmlns="http://www.w3.org/2000/svg" xmlns:xlink="http://www.w3.org/1999/xlink">
    <!-- Generator: Sketch 64 (93537) - https://sketch.com -->
    <title>Group Copy</title>
    <desc>Created with Sketch.</desc>
    <defs>
        <filter x="-18.7%" y="-7.4%" width="137.4%" height="114.9%" filterUnits="objectBoundingBox" id="filter-1">
            <feOffset dx="0" dy="4" in="SourceAlpha" result="shadowOffsetOuter1"></feOffset>
            <feGaussianBlur stdDeviation="12" in="shadowOffsetOuter1" result="shadowBlurOuter1"></feGaussianBlur>
            <feColorMatrix values="0 0 0 0 0   0 0 0 0 0   0 0 0 0 0  0 0 0 0.2 0" type="matrix" in="shadowBlurOuter1" result="shadowMatrixOuter1"></feColorMatrix>
            <feMerge>
                <feMergeNode in="shadowMatrixOuter1"></feMergeNode>
                <feMergeNode in="SourceGraphic"></feMergeNode>
            </feMerge>
        </filter>
    </defs>
    <g id="New" stroke="none" stroke-width="1" fill="none" fill-rule="evenodd" opacity="0.692313058">
        <g id="Projects-inner" transform="translate(-82.000000, -3067.000000)" fill="#FFFFFF">
            <g id="ayurmana-ayurveda-mCb06TSaab0-unsplash" filter="url(#filter-1)" transform="translate(99.000000, 2539.000000)">
                <g id="Group-Copy" transform="translate(42.000000, 693.000000) scale(-1, 1) rotate(-240.000000) translate(-42.000000, -693.000000) translate(-111.000000, 540.000000)">
                    <path d="M20.6634514,67.2748847 L20.9193363,67.4185633 C7.24090808,91.7557794 0.131393064,119.374662 0.35964718,147.289354 C0.587901295,175.177483 8.2296088,202.656309 22.4618535,226.754463 C36.6940983,250.853825 57.0663787,270.814278 81.379046,284.479437 C105.334916,297.944171 132.476733,305.043582 159.946515,305.044789 C160.382601,305.044789 160.813881,305.042374 161.248765,305.038752 C189.137814,304.811764 216.616005,297.167824 240.714834,282.936402 L240.8638,283.189952 C216.721723,297.447936 189.191874,305.105158 161.251168,305.334561 C160.817485,305.339391 160.381399,305.339391 159.946515,305.339391 C132.423874,305.339391 105.236406,298.226698 81.2348855,284.73661 C56.8777688,271.046096 36.4658442,251.048213 22.2083713,226.905386 C7.95089851,202.762559 0.29357362,175.231815 0.0653195049,147.291768 C-0.164135948,119.325159 6.95859378,91.6555666 20.6634514,67.2748847 Z M159.436187,0.339390645 C184.504496,0.339390645 209.265262,6.81699963 231.125999,19.1045349 C253.311098,31.574385 271.900594,49.7877552 284.887051,71.7778191 C297.872308,93.7666755 304.847273,118.840395 305.055104,144.287196 C305.262936,169.759352 298.775714,194.961054 286.295019,217.166032 C273.825136,239.350485 255.611659,257.940558 233.622378,270.927168 C211.633098,283.912571 186.558783,290.886414 161.112053,291.094084 C160.716813,291.100121 160.317969,291.100121 159.922729,291.100121 C134.85442,291.100121 110.093654,284.622512 88.2329164,272.334977 C66.0490191,259.865127 47.4583221,241.650549 34.4718643,219.661693 C21.4866078,197.672836 14.5128439,172.599117 14.3038112,147.151108 C14.0959798,121.678952 20.583202,96.4784574 33.0650981,74.2734794 C45.5337795,52.0890269 63.7484579,33.4989532 85.7365372,20.5135507 C107.727019,7.52694075 132.800133,0.55309741 158.248064,0.34542756 C158.642103,0.339390645 159.042148,0.339390645 159.436187,0.339390645 Z M159.436187,0.928593476 C159.040947,0.928593476 158.646908,0.928593476 158.25287,0.933423007 C132.908253,1.14109286 107.936052,8.08716639 86.0368716,21.0206515 C64.1364899,33.9529292 45.9962944,52.4681452 33.5780692,74.5620439 C21.1466293,96.6776756 14.6858365,121.77675 14.8936679,147.147486 C15.1002979,172.490452 22.0464311,197.462752 34.98003,219.363469 C47.9124277,241.262979 66.4274404,259.402699 88.5212374,271.820632 C110.293076,284.058664 134.957735,290.510918 159.922729,290.510918 C160.317969,290.510918 160.712007,290.510918 161.107247,290.504881 C186.450662,290.298419 211.421662,283.353553 233.322044,270.41886 C255.222426,257.485375 273.362621,238.971366 285.780846,216.877468 C298.212286,194.761836 304.673079,169.661554 304.466449,144.293233 C304.258618,118.94906 297.312485,93.9767601 284.378886,72.07725 C271.446488,50.1765325 252.931475,32.0368126 230.837678,19.6176726 C209.06584,7.38084742 184.402382,0.928593476 159.436187,0.928593476 Z M158.38838,14.5836105 L158.395588,15.4674148 C135.596606,15.6533518 113.130395,21.901558 93.4284606,33.5371065 C73.7277278,45.172655 57.4087599,61.8285014 46.2363216,81.7044379 C35.0530713,101.599692 29.2410008,124.180167 29.4272081,147.003325 C29.6134154,169.803542 35.8615714,192.268108 47.497726,211.970181 C59.1326792,231.672254 75.7880215,247.991241 95.6641496,259.161947 C115.250755,270.172071 137.438257,275.97596 159.898462,275.97596 C160.252856,275.97596 160.608452,275.974753 160.964048,275.972338 L160.971256,276.854935 C160.614459,276.859765 160.254058,276.859765 159.898462,276.859765 C137.285687,276.859765 114.950421,271.017239 95.2304668,259.932257 C75.2197889,248.685486 58.4503195,232.25542 46.736078,212.419327 C35.0230379,192.584442 28.7316337,169.966539 28.544225,147.010569 C28.3556151,124.034073 34.2085311,101.301469 45.4662643,81.2709875 C56.7143869,61.2598241 73.1438778,44.4904837 92.9791604,32.7764553 C112.815644,21.0624269 135.433224,14.7719623 158.38838,14.5836105 Z" id="Combined-Shape"></path>
                </g>
            </g>
        </g>
    </g>
</svg>