<?xml version="1.0" encoding="UTF-8"?>
<svg width="43px" height="43px" viewBox="0 0 43 43" version="1.1" xmlns="http://www.w3.org/2000/svg" xmlns:xlink="http://www.w3.org/1999/xlink">
    <!-- Generator: Sketch 64 (93537) - https://sketch.com -->
    <title>Group 3</title>
    <desc>Created with Sketch.</desc>
    <g id="New" stroke="none" stroke-width="1" fill="none" fill-rule="evenodd">
        <g id="article-inner" transform="translate(-184.000000, -550.000000)">
            <g id="Group-3" transform="translate(185.000000, 551.000000)">
                <g id="icon/social-media">
                    <g id="Group-3-Copy-2">
                        <path d="M20.8097346,41.1747294 C17.2274576,41.1747294 13.6892054,40.2576327 10.5654038,38.5175507 C7.39477316,36.7517765 4.73813971,34.1725119 2.88208557,31.0584605 C1.02631185,27.944409 0.0297237858,24.3935916 -1.22580082e-12,20.7897144 L0.687292443,20.7841292 C0.715894577,24.2679237 1.6793939,27.7011717 3.47403757,30.7121755 C5.26840083,33.7229 7.83698458,36.2167104 10.9021799,37.9238395 C13.9710206,39.6329234 17.4520685,40.5223731 20.9737763,40.4930506 C24.4901562,40.4645659 27.9546597,39.5097688 30.9929354,37.7314279 C34.0314914,35.9533662 36.5481988,33.4081716 38.2713371,30.3709172 C39.9958775,27.3300324 40.8926385,23.8789116 40.863756,20.3906489 C40.8351538,16.9065752 39.8713741,13.4733272 38.0770109,10.4626026 C36.2826476,7.45187814 33.7140638,4.95806775 30.6485881,3.25065938 C27.5800279,1.54157544 24.0950542,0.652684231 20.5769918,0.681727487 C17.0608922,0.71021222 13.5963887,1.66500928 10.5578326,3.44307095 C7.51955698,5.22113263 5.00256923,7.76660651 3.27971131,10.8038609 L2.68074898,10.4701427 C4.46277407,7.3284443 7.06584863,4.69584065 10.2081575,2.85662058 C13.3510273,1.01767977 16.9344259,0.03020905 20.5713835,0.000607269307 C24.215071,-0.0270396768 27.8124903,0.889777738 30.9856446,2.65694819 C34.1559948,4.4230016 36.8129087,7.00226619 38.6686824,10.1163177 C40.5247366,13.2303691 41.5213246,16.7809073 41.5510484,20.3850637 C41.5810526,23.9920127 40.654007,27.5604236 38.8702994,30.7046354 C37.0882744,33.8463338 34.4851998,36.4789375 31.3426105,38.3181575 C28.2000212,40.1570983 24.6166225,41.1445691 20.9796649,41.1741708 C20.9230215,41.1747294 20.8660976,41.1747294 20.8097346,41.1747294" id="Combined-Shape" fill="#004876"></path>
                        <path d="M20.8097346,41.1747294 C17.2274576,41.1747294 13.6892054,40.2576327 10.5654038,38.5175507 C7.39477316,36.7517765 4.73813971,34.1725119 2.88208557,31.0584605 C1.02631185,27.944409 0.0297237858,24.3935916 -1.05171785e-12,20.7897144 L0.687292443,20.7841292 C0.715894577,24.2679237 1.6793939,27.7011717 3.47403757,30.7121755 C5.26840083,33.7229 7.83698458,36.2167104 10.9021799,37.9238395 C13.9710206,39.6329234 17.4520685,40.5223731 20.9737763,40.4930506 C24.4901562,40.4645659 27.9546597,39.5097688 30.9929354,37.7314279 C34.0314914,35.9533662 36.5481988,33.4081716 38.2713371,30.3709172 C39.9958775,27.3300324 40.8926385,23.8789116 40.863756,20.3906489 C40.8351538,16.9065752 39.8713741,13.4733272 38.0770109,10.4626026 C36.2826476,7.45187814 33.7140638,4.95806775 30.6485881,3.25065938 C27.5800279,1.54157544 24.0950542,0.652684231 20.5769918,0.681727487 C17.0608922,0.71021222 13.5963887,1.66500928 10.5578326,3.44307095 C7.51955698,5.22113263 5.00256923,7.76660651 3.27971131,10.8038609 L2.68074898,10.4701427 C4.46277407,7.3284443 7.06584863,4.69584065 10.2081575,2.85662058 C13.3510273,1.01767977 16.9344259,0.03020905 20.5713835,0.000607269307 C24.215071,-0.0270396768 27.8124903,0.889777738 30.9856446,2.65694819 C34.1559948,4.4230016 36.8129087,7.00226619 38.6686824,10.1163177 C40.5247366,13.2303691 41.5213246,16.7809073 41.5510484,20.3850637 C41.5810526,23.9920127 40.654007,27.5604236 38.8702994,30.7046354 C37.0882744,33.8463338 34.4851998,36.4789375 31.3426105,38.3181575 C28.2000212,40.1570983 24.6166225,41.1445691 20.9796649,41.1741708 C20.9230215,41.1747294 20.8660976,41.1747294 20.8097346,41.1747294" id="Combined-Shape" stroke="#FFFFFF" stroke-width="0.3"></path>
                    </g>
                </g>
                <g id="icon/facebooj" transform="translate(15.500000, 11.000000)" stroke="#004876" stroke-linecap="round" stroke-linejoin="round">
                    <g id="twitter-copy">
                        <path d="M10.0008333,3.32083333 L10.0008333,0.140833333 C9.68583333,0.0975 8.6025,0 7.34083333,0 C4.70833333,0 2.905,1.65583333 2.905,4.69916667 L2.905,7.5 L0,7.5 L0,11.055 L2.905,11.055 L2.905,20 L6.46666667,20 L6.46666667,11.0558333 L9.25416667,11.0558333 L9.69666667,7.50083333 L6.46583333,7.50083333 L6.46583333,5.05166667 C6.46666667,4.02416667 6.74333333,3.32083333 8.175,3.32083333 L10.0008333,3.32083333 Z" id="Path"></path>
                    </g>
                </g>
            </g>
        </g>
    </g>
</svg>