<?xml version="1.0" encoding="UTF-8"?>
<svg width="43px" height="43px" viewBox="0 0 43 43" version="1.1" xmlns="http://www.w3.org/2000/svg" xmlns:xlink="http://www.w3.org/1999/xlink">
    <!-- Generator: Sketch 64 (93537) - https://sketch.com -->
    <title>Group 2</title>
    <desc>Created with Sketch.</desc>
    <g id="New" stroke="none" stroke-width="1" fill="none" fill-rule="evenodd">
        <g id="article-inner" transform="translate(-185.000000, -608.000000)">
            <g id="Group-2" transform="translate(180.000000, 603.000000)">
                <g id="icon/instagram" transform="translate(16.500000, 16.500000)" fill="#004876">
                    <g id="Group">
                        <path d="M15.2770732,0.012195122 C17.9283902,0.012195122 20.0852683,2.16926829 20.0852683,4.82058537 L20.0852683,4.82058537 L20.0852683,15.2770732 C20.0852683,17.9284878 17.9283902,20.0854634 15.2770732,20.0854634 L15.2770732,20.0854634 L4.8204878,20.0854634 C2.16917073,20.0854634 0.012195122,17.9284878 0.012195122,15.2770732 L0.012195122,15.2770732 L0.012195122,4.82058537 C0.012195122,2.16926829 2.16917073,0.012195122 4.8204878,0.012195122 L4.8204878,0.012195122 Z M15.2770732,1.27863415 L4.8204878,1.27863415 C2.8675122,1.27863415 1.27853659,2.8675122 1.27853659,4.82058537 L1.27853659,4.82058537 L1.27853659,15.2769756 C1.27853659,17.2301463 2.86741463,18.8193171 4.8204878,18.8193171 L4.8204878,18.8193171 L15.2770732,18.8193171 C17.2302439,18.8193171 18.8193171,17.2301463 18.8193171,15.2769756 L18.8193171,15.2769756 L18.8193171,4.82058537 C18.8193171,2.86760976 17.2302439,1.27863415 15.2770732,1.27863415 L15.2770732,1.27863415 Z M10.0485854,5.12878049 C12.761561,5.12878049 14.9687805,7.33580488 14.9687805,10.0485854 C14.9687805,12.761561 12.761561,14.9687805 10.0485854,14.9687805 C7.33580488,14.9687805 5.12878049,12.761561 5.12878049,10.0485854 C5.12878049,7.33580488 7.33580488,5.12878049 10.0485854,5.12878049 Z M10.0485854,6.39531707 C8.0337561,6.39531707 6.39463415,8.03414634 6.39463415,10.0485854 C6.39463415,12.0635122 8.0337561,13.7028293 10.0485854,13.7028293 C12.0632195,13.7028293 13.7022439,12.0635122 13.7021463,10.0485854 C13.7021463,8.03414634 12.0632195,6.39531707 10.0485854,6.39531707 Z M15.6588293,3.68078049 C16.0838049,3.68078049 16.429561,4.02663415 16.429561,4.45160976 C16.429561,4.87658537 16.0838049,5.22234146 15.6588293,5.22234146 C15.2336585,5.22234146 14.8877073,4.87658537 14.8877073,4.45160976 C14.8877073,4.02663415 15.2336585,3.68078049 15.6588293,3.68078049 Z" id="Combined-Shape"></path>
                    </g>
                </g>
                <g id="icon/social-media" transform="translate(26.000000, 26.000000) rotate(-165.000000) translate(-26.000000, -26.000000) translate(5.000000, 5.000000)">
                    <g id="Group-3-Copy-2">
                        <path d="M20.8097346,41.1747294 C17.2274576,41.1747294 13.6892054,40.2576327 10.5654038,38.5175507 C7.39477316,36.7517765 4.73813971,34.1725119 2.88208557,31.0584605 C1.02631185,27.944409 0.0297237858,24.3935916 -1.22580082e-12,20.7897144 L0.687292443,20.7841292 C0.715894577,24.2679237 1.6793939,27.7011717 3.47403757,30.7121755 C5.26840083,33.7229 7.83698458,36.2167104 10.9021799,37.9238395 C13.9710206,39.6329234 17.4520685,40.5223731 20.9737763,40.4930506 C24.4901562,40.4645659 27.9546597,39.5097688 30.9929354,37.7314279 C34.0314914,35.9533662 36.5481988,33.4081716 38.2713371,30.3709172 C39.9958775,27.3300324 40.8926385,23.8789116 40.863756,20.3906489 C40.8351538,16.9065752 39.8713741,13.4733272 38.0770109,10.4626026 C36.2826476,7.45187814 33.7140638,4.95806775 30.6485881,3.25065938 C27.5800279,1.54157544 24.0950542,0.652684231 20.5769918,0.681727487 C17.0608922,0.71021222 13.5963887,1.66500928 10.5578326,3.44307095 C7.51955698,5.22113263 5.00256923,7.76660651 3.27971131,10.8038609 L2.68074898,10.4701427 C4.46277407,7.3284443 7.06584863,4.69584065 10.2081575,2.85662058 C13.3510273,1.01767977 16.9344259,0.03020905 20.5713835,0.000607269307 C24.215071,-0.0270396768 27.8124903,0.889777738 30.9856446,2.65694819 C34.1559948,4.4230016 36.8129087,7.00226619 38.6686824,10.1163177 C40.5247366,13.2303691 41.5213246,16.7809073 41.5510484,20.3850637 C41.5810526,23.9920127 40.654007,27.5604236 38.8702994,30.7046354 C37.0882744,33.8463338 34.4851998,36.4789375 31.3426105,38.3181575 C28.2000212,40.1570983 24.6166225,41.1445691 20.9796649,41.1741708 C20.9230215,41.1747294 20.8660976,41.1747294 20.8097346,41.1747294" id="Combined-Shape" fill="#004876"></path>
                        <path d="M20.8097346,41.1747294 C17.2274576,41.1747294 13.6892054,40.2576327 10.5654038,38.5175507 C7.39477316,36.7517765 4.73813971,34.1725119 2.88208557,31.0584605 C1.02631185,27.944409 0.0297237858,24.3935916 -1.05171785e-12,20.7897144 L0.687292443,20.7841292 C0.715894577,24.2679237 1.6793939,27.7011717 3.47403757,30.7121755 C5.26840083,33.7229 7.83698458,36.2167104 10.9021799,37.9238395 C13.9710206,39.6329234 17.4520685,40.5223731 20.9737763,40.4930506 C24.4901562,40.4645659 27.9546597,39.5097688 30.9929354,37.7314279 C34.0314914,35.9533662 36.5481988,33.4081716 38.2713371,30.3709172 C39.9958775,27.3300324 40.8926385,23.8789116 40.863756,20.3906489 C40.8351538,16.9065752 39.8713741,13.4733272 38.0770109,10.4626026 C36.2826476,7.45187814 33.7140638,4.95806775 30.6485881,3.25065938 C27.5800279,1.54157544 24.0950542,0.652684231 20.5769918,0.681727487 C17.0608922,0.71021222 13.5963887,1.66500928 10.5578326,3.44307095 C7.51955698,5.22113263 5.00256923,7.76660651 3.27971131,10.8038609 L2.68074898,10.4701427 C4.46277407,7.3284443 7.06584863,4.69584065 10.2081575,2.85662058 C13.3510273,1.01767977 16.9344259,0.03020905 20.5713835,0.000607269307 C24.215071,-0.0270396768 27.8124903,0.889777738 30.9856446,2.65694819 C34.1559948,4.4230016 36.8129087,7.00226619 38.6686824,10.1163177 C40.5247366,13.2303691 41.5213246,16.7809073 41.5510484,20.3850637 C41.5810526,23.9920127 40.654007,27.5604236 38.8702994,30.7046354 C37.0882744,33.8463338 34.4851998,36.4789375 31.3426105,38.3181575 C28.2000212,40.1570983 24.6166225,41.1445691 20.9796649,41.1741708 C20.9230215,41.1747294 20.8660976,41.1747294 20.8097346,41.1747294" id="Combined-Shape" stroke="#FFFFFF" stroke-width="0.3"></path>
                    </g>
                </g>
            </g>
        </g>
    </g>
</svg>