<?xml version="1.0" encoding="UTF-8"?>
<svg width="9px" height="11px" viewBox="0 0 9 11" version="1.1" xmlns="http://www.w3.org/2000/svg" xmlns:xlink="http://www.w3.org/1999/xlink">
    <!-- Generator: Sketch 64 (93537) - https://sketch.com -->
    <title>icon/location</title>
    <desc>Created with Sketch.</desc>
    <g id="New" stroke="none" stroke-width="1" fill="none" fill-rule="evenodd">
        <g id="careers" transform="translate(-181.000000, -1128.000000)" fill="#004876">
            <g id="vacancy-card-copy-6" transform="translate(131.000000, 1036.000000)">
                <g id="icon/location" transform="translate(50.000000, 92.000000)">
                    <g id="placeholder">
                        <path d="M4.45348965,2.48689958e-14 C5.52195662,2.48689958e-14 6.52659093,0.400770678 7.28215269,1.1285863 C8.68021314,2.47493471 8.85397983,5.00772504 7.65367547,6.54893438 L7.65367547,6.54893438 L4.45348965,11 L1.24850595,6.54270687 C0.0527908697,5.00792593 0.226557559,2.47473382 1.62482661,1.12838541 C2.38038838,0.400770678 3.38502268,2.48689958e-14 4.45348965,2.48689958e-14 Z M4.45348965,0.401775116 C3.49641694,0.401775116 2.59650157,0.760761181 1.91979192,1.41244042 C0.65774093,2.62760926 0.502331346,4.91531676 1.58706938,6.30786931 L1.58706938,6.30786931 L4.45348965,10.2940811 L7.31532065,6.31389594 C8.40443936,4.91531676 8.24902977,2.62760926 6.98718739,1.41244042 C6.31026913,0.760761181 5.41056237,0.401775116 4.45348965,0.401775116 Z M4.49041247,2.41065069 C5.29562186,2.41065069 5.95063675,3.04163851 5.95063675,3.8168636 C5.95063675,4.59208868 5.29562186,5.2230765 4.49041247,5.2230765 C3.68520308,5.2230765 3.03018818,4.59208868 3.03018818,3.8168636 C3.03018818,3.04163851 3.68520308,2.41065069 4.49041247,2.41065069 Z M4.49041247,2.81242581 C3.9152927,2.81242581 3.44739512,3.2630166 3.44739512,3.8168636 C3.44739512,4.37071059 3.9152927,4.82130139 4.49041247,4.82130139 C5.06553223,4.82130139 5.53342981,4.37071059 5.53342981,3.8168636 C5.53342981,3.2630166 5.06553223,2.81242581 4.49041247,2.81242581 Z" id="Combined-Shape" fill-rule="nonzero"></path>
                    </g>
                </g>
            </g>
        </g>
    </g>
</svg>