<?xml version="1.0" encoding="UTF-8"?>
<svg width="10px" height="10px" viewBox="0 0 10 10" version="1.1" xmlns="http://www.w3.org/2000/svg" xmlns:xlink="http://www.w3.org/1999/xlink">
    <!-- Generator: Sketch 64 (93537) - https://sketch.com -->
    <title>icon/time</title>
    <desc>Created with Sketch.</desc>
    <g id="New" stroke="none" stroke-width="1" fill="none" fill-rule="evenodd">
        <g id="careers" transform="translate(-336.000000, -1129.000000)" fill="#004876">
            <g id="vacancy-card-copy-6" transform="translate(131.000000, 1036.000000)">
                <g id="icon/time" transform="translate(205.000000, 93.000000)">
                    <g id="time">
                        <path d="M5,0 C7.760125,0.003125 9.996875,2.239875 10,5 C10,7.76141667 7.76141667,10 5,10 C2.23858333,10 0,7.76141667 0,5 C0,2.23858333 2.23858333,0 5,0 Z M5,0.333333333 C2.42266667,0.333333333 0.333333333,2.42266667 0.333333333,5 C0.333333333,7.57733333 2.42266667,9.66666667 5,9.66666667 C7.57610417,9.66372917 9.66372917,7.57610417 9.66666667,5 C9.66666667,2.42266667 7.57733333,0.333333333 5,0.333333333 Z M5,0.833333333 C7.300125,0.835895833 9.16410417,2.699875 9.16666667,5 C9.16666667,7.3011875 7.3011875,9.16666667 5,9.16666667 C2.6988125,9.16666667 0.833333333,7.3011875 0.833333333,5 C0.833333333,2.6988125 2.6988125,0.833333333 5,0.833333333 Z M5,1.16666667 C2.88291667,1.16666667 1.16666667,2.88291667 1.16666667,5 C1.16666667,7.11708333 2.88291667,8.83333333 5,8.83333333 C7.11610417,8.8309375 8.8309375,7.11610417 8.83333333,5 C8.83333333,2.88291667 7.11708333,1.16666667 5,1.16666667 Z M5.16666667,8 L5.16666667,8.33333333 L4.83333333,8.33333333 L4.83333333,8 L5.16666667,8 Z M3.35454265,7.51449931 L3.64303167,7.68111596 L3.47641502,7.96960498 L3.187926,7.80298833 L3.35454265,7.51449931 Z M6.6431753,7.51388148 L6.80979195,7.8023705 L6.52130294,7.96898715 L6.35468629,7.68049813 L6.6431753,7.51388148 Z M7.68069192,6.35621896 L7.96935858,6.52288562 L7.80269192,6.81155229 L7.51402525,6.64488562 L7.68069192,6.35621896 Z M2.31856305,6.35592297 L2.48519638,6.64462297 L2.19649638,6.8112563 L2.02986305,6.5225563 L2.31856305,6.35592297 Z M5.16666667,2.33333333 L5.16666667,5 C5.16666667,5.0585 5.13597917,5.11270833 5.08583333,5.14283333 L5.08583333,5.14283333 L3.41916667,6.14283333 L3.2475,5.85716667 L4.83333333,4.90566667 L4.83333333,2.33333333 L5.16666667,2.33333333 Z M2,4.83333333 L2,5.16666667 L1.66666667,5.16666667 L1.66666667,4.83333333 L2,4.83333333 Z M8.33333333,4.83333333 L8.33333333,5.16666667 L8,5.16666667 L8,4.83333333 L8.33333333,4.83333333 Z M2.19643467,3.18900225 L2.48510133,3.35566892 L2.31843467,3.64433558 L2.029768,3.47766892 L2.19643467,3.18900225 Z M7.80264504,3.18899667 L7.96931171,3.47766333 L7.68064504,3.64433 L7.51397837,3.35566333 L7.80264504,3.18899667 Z M3.47725925,2.0300955 L3.6438759,2.31858451 L3.35538688,2.48520116 L3.18877023,2.19671215 L3.47725925,2.0300955 Z M6.52206484,2.03040907 L6.81055385,2.19702572 L6.6439372,2.48551473 L6.35544819,2.31889808 L6.52206484,2.03040907 Z M5.16666667,1.66666667 L5.16666667,2 L4.83333333,2 L4.83333333,1.66666667 L5.16666667,1.66666667 Z" id="Combined-Shape"></path>
                    </g>
                </g>
            </g>
        </g>
    </g>
</svg>