<?xml version="1.0" encoding="UTF-8"?>
<svg width="10px" height="14px" viewBox="0 0 10 14" version="1.1" xmlns="http://www.w3.org/2000/svg" xmlns:xlink="http://www.w3.org/1999/xlink">
    <title>Path</title>
    <g id="Symbols" stroke="none" stroke-width="1" fill="none" fill-rule="evenodd">
        <g id="Group-2" transform="translate(-8.000000, -6.000000)" fill="#FFCD67">
            <path d="M13.7035714,19.544335 L17.6916256,15.5562808 C17.9694581,15.2784483 17.9694581,14.8327586 17.6916256,14.5549261 C17.4137931,14.2770936 16.9681034,14.2770936 16.6902709,14.5549261 L13.9119458,17.3332512 L13.9119458,6.71194581 C13.9119458,6.31834975 13.5935961,6 13.2,6 C12.8064039,6 12.4880542,6.31834975 12.4880542,6.71194581 L12.4880542,17.3274631 L9.70972906,14.5491379 C9.43189655,14.2713054 8.9862069,14.2713054 8.70837438,14.5491379 C8.43054187,14.8269704 8.43054187,15.2726601 8.70837438,15.5504926 L12.6964286,19.5385468 C12.8353448,19.6774631 13.0147783,19.7469212 13.2,19.7469212 C13.3852217,19.7469212 13.5646552,19.6832512 13.7035714,19.544335 Z" id="Path"></path>
        </g>
    </g>
</svg>