<?xml version="1.0" encoding="UTF-8"?>
<svg width="43px" height="42px" viewBox="0 0 43 42" version="1.1" xmlns="http://www.w3.org/2000/svg" xmlns:xlink="http://www.w3.org/1999/xlink">
    <!-- Generator: Sketch 64 (93537) - https://sketch.com -->
    <title>Group 4</title>
    <desc>Created with Sketch.</desc>
    <g id="Symbols" stroke="none" stroke-width="1" fill="none" fill-rule="evenodd">
        <g id="footer" transform="translate(-698.000000, -50.000000)">
            <g id="Group" transform="translate(626.000000, 41.000000)">
                <g id="Group-4" transform="translate(65.000000, 1.000000)">
                    <g id="icon/social-media" transform="translate(29.000000, 29.000000) rotate(-64.000000) translate(-29.000000, -29.000000) translate(8.000000, 8.000000)">
                        <g id="Group-3-Copy-2">
                            <path d="M20.8097346,41.1747294 C17.2274576,41.1747294 13.6892054,40.2576327 10.5654038,38.5175507 C7.39477316,36.7517765 4.73813971,34.1725119 2.88208557,31.0584605 C1.02631185,27.944409 0.0297237858,24.3935916 -1.22580082e-12,20.7897144 L0.687292443,20.7841292 C0.715894577,24.2679237 1.6793939,27.7011717 3.47403757,30.7121755 C5.26840083,33.7229 7.83698458,36.2167104 10.9021799,37.9238395 C13.9710206,39.6329234 17.4520685,40.5223731 20.9737763,40.4930506 C24.4901562,40.4645659 27.9546597,39.5097688 30.9929354,37.7314279 C34.0314914,35.9533662 36.5481988,33.4081716 38.2713371,30.3709172 C39.9958775,27.3300324 40.8926385,23.8789116 40.863756,20.3906489 C40.8351538,16.9065752 39.8713741,13.4733272 38.0770109,10.4626026 C36.2826476,7.45187814 33.7140638,4.95806775 30.6485881,3.25065938 C27.5800279,1.54157544 24.0950542,0.652684231 20.5769918,0.681727487 C17.0608922,0.71021222 13.5963887,1.66500928 10.5578326,3.44307095 C7.51955698,5.22113263 5.00256923,7.76660651 3.27971131,10.8038609 L2.68074898,10.4701427 C4.46277407,7.3284443 7.06584863,4.69584065 10.2081575,2.85662058 C13.3510273,1.01767977 16.9344259,0.03020905 20.5713835,0.000607269307 C24.215071,-0.0270396768 27.8124903,0.889777738 30.9856446,2.65694819 C34.1559948,4.4230016 36.8129087,7.00226619 38.6686824,10.1163177 C40.5247366,13.2303691 41.5213246,16.7809073 41.5510484,20.3850637 C41.5810526,23.9920127 40.654007,27.5604236 38.8702994,30.7046354 C37.0882744,33.8463338 34.4851998,36.4789375 31.3426105,38.3181575 C28.2000212,40.1570983 24.6166225,41.1445691 20.9796649,41.1741708 C20.9230215,41.1747294 20.8660976,41.1747294 20.8097346,41.1747294" id="Combined-Shape" fill="#FFFFFF"></path>
                            <path d="M20.8097346,41.1747294 C17.2274576,41.1747294 13.6892054,40.2576327 10.5654038,38.5175507 C7.39477316,36.7517765 4.73813971,34.1725119 2.88208557,31.0584605 C1.02631185,27.944409 0.0297237858,24.3935916 -1.05171785e-12,20.7897144 L0.687292443,20.7841292 C0.715894577,24.2679237 1.6793939,27.7011717 3.47403757,30.7121755 C5.26840083,33.7229 7.83698458,36.2167104 10.9021799,37.9238395 C13.9710206,39.6329234 17.4520685,40.5223731 20.9737763,40.4930506 C24.4901562,40.4645659 27.9546597,39.5097688 30.9929354,37.7314279 C34.0314914,35.9533662 36.5481988,33.4081716 38.2713371,30.3709172 C39.9958775,27.3300324 40.8926385,23.8789116 40.863756,20.3906489 C40.8351538,16.9065752 39.8713741,13.4733272 38.0770109,10.4626026 C36.2826476,7.45187814 33.7140638,4.95806775 30.6485881,3.25065938 C27.5800279,1.54157544 24.0950542,0.652684231 20.5769918,0.681727487 C17.0608922,0.71021222 13.5963887,1.66500928 10.5578326,3.44307095 C7.51955698,5.22113263 5.00256923,7.76660651 3.27971131,10.8038609 L2.68074898,10.4701427 C4.46277407,7.3284443 7.06584863,4.69584065 10.2081575,2.85662058 C13.3510273,1.01767977 16.9344259,0.03020905 20.5713835,0.000607269307 C24.215071,-0.0270396768 27.8124903,0.889777738 30.9856446,2.65694819 C34.1559948,4.4230016 36.8129087,7.00226619 38.6686824,10.1163177 C40.5247366,13.2303691 41.5213246,16.7809073 41.5510484,20.3850637 C41.5810526,23.9920127 40.654007,27.5604236 38.8702994,30.7046354 C37.0882744,33.8463338 34.4851998,36.4789375 31.3426105,38.3181575 C28.2000212,40.1570983 24.6166225,41.1445691 20.9796649,41.1741708 C20.9230215,41.1747294 20.8660976,41.1747294 20.8097346,41.1747294" id="Combined-Shape" stroke="#FFFFFF" stroke-width="0.3"></path>
                        </g>
                    </g>
                    <g id="icon/instagram" transform="translate(19.000000, 19.000000)" fill="#FFFFFF">
                        <g id="Group">
                            <path d="M14.5495935,0.0116144019 C17.0746574,0.0116144019 19.1288269,2.0659698 19.1288269,4.59103368 L19.1288269,4.59103368 L19.1288269,14.5495935 C19.1288269,17.0747503 17.0746574,19.1290128 14.5495935,19.1290128 L14.5495935,19.1290128 L4.59094077,19.1290128 C2.06587689,19.1290128 0.0116144019,17.0747503 0.0116144019,14.5495935 L0.0116144019,14.5495935 L0.0116144019,4.59103368 C0.0116144019,2.0659698 2.06587689,0.0116144019 4.59094077,0.0116144019 L4.59094077,0.0116144019 Z M14.5495935,1.21774681 L4.59094077,1.21774681 C2.730964,1.21774681 1.21765389,2.730964 1.21765389,4.59103368 L1.21765389,4.59103368 L1.21765389,14.5495006 C1.21765389,16.4096632 2.73087108,17.9231591 4.59094077,17.9231591 L4.59094077,17.9231591 L14.5495935,17.9231591 C16.4097561,17.9231591 17.9231591,16.4096632 17.9231591,14.5495006 L17.9231591,14.5495006 L17.9231591,4.59103368 C17.9231591,2.73105691 16.4097561,1.21774681 14.5495935,1.21774681 L14.5495935,1.21774681 Z M9.5700813,4.88455285 C12.1538676,4.88455285 14.2559814,6.98648084 14.2559814,9.5700813 C14.2559814,12.1538676 12.1538676,14.2559814 9.5700813,14.2559814 C6.98648084,14.2559814 4.88455285,12.1538676 4.88455285,9.5700813 C4.88455285,6.98648084 6.98648084,4.88455285 9.5700813,4.88455285 Z M9.5700813,6.09077816 C7.65119628,6.09077816 6.09012776,7.65156794 6.09012776,9.5700813 C6.09012776,11.4890592 7.65119628,13.0503136 9.5700813,13.0503136 C11.4887805,13.0503136 13.0497561,11.4890592 13.0496632,9.5700813 C13.0496632,7.65156794 11.4887805,6.09077816 9.5700813,6.09077816 Z M14.9131707,3.50550523 C15.3179094,3.50550523 15.6472009,3.83488966 15.6472009,4.23962834 C15.6472009,4.64436702 15.3179094,4.97365854 14.9131707,4.97365854 C14.5082462,4.97365854 14.1787689,4.64436702 14.1787689,4.23962834 C14.1787689,3.83488966 14.5082462,3.50550523 14.9131707,3.50550523 Z" id="Combined-Shape"></path>
                        </g>
                    </g>
                </g>
            </g>
        </g>
    </g>
</svg>