<?xml version="1.0" encoding="UTF-8"?>
<svg width="43px" height="43px" viewBox="0 0 43 43" version="1.1" xmlns="http://www.w3.org/2000/svg" xmlns:xlink="http://www.w3.org/1999/xlink">
    <!-- Generator: Sketch 64 (93537) - https://sketch.com -->
    <title>Group 6</title>
    <desc>Created with Sketch.</desc>
    <g id="New" stroke="none" stroke-width="1" fill="none" fill-rule="evenodd">
        <g id="article-inner" transform="translate(-184.000000, -664.000000)">
            <g id="Group-6" transform="translate(185.000000, 665.000000)">
                <g id="icon/Linkedin" transform="translate(11.500000, 10.500000)" fill="#004876">
                    <g id="linkedin" transform="translate(0.500000, 0.500000)">
                        <path d="M3.59432445,6.17589614 C4.99782789,6.17589614 6.13970588,5.03401815 6.13970588,3.63051471 C6.13970588,2.22682278 4.99782789,1.08513327 3.59432445,1.08513327 C2.19063253,1.08513327 1.04894301,2.22701126 1.04894301,3.63051471 C1.04894301,5.03401815 2.19063253,6.17589614 3.59432445,6.17589614 Z M3.59432445,2.0502068 C4.465718,2.0502068 5.17463235,2.75912115 5.17463235,3.63051471 C5.17463235,4.50190826 4.465718,5.21082261 3.59432445,5.21082261 C2.7229309,5.21082261 2.01401654,4.50190826 2.01401654,3.63051471 C2.01401654,2.75912115 2.7229309,2.0502068 3.59432445,2.0502068 Z" id="Shape"></path>
                        <path d="M14.2583869,6.41716452 C13.1919053,6.41716452 12.1625564,6.78811466 11.3390395,7.44368612 L11.3390395,7.14096967 C11.3390395,6.87444348 11.1228404,6.6584329 10.8565028,6.6584329 L7.49080882,6.6584329 C7.22428263,6.6584329 7.00827206,6.87444348 7.00827206,7.14096967 L7.00827206,18.43233 C7.00827206,18.6988562 7.22428263,18.9148667 7.49080882,18.9148667 L11.037454,18.9148667 C11.3037917,18.9148667 11.5199908,18.6988562 11.5199908,18.43233 L11.5199908,11.9150678 C11.5199908,11.1102115 12.1748083,10.4553941 12.9796645,10.4553941 C13.7845208,10.4553941 14.4393382,11.1102115 14.4393382,11.9150678 L14.4393382,18.43233 C14.4393382,18.6988562 14.6553488,18.9148667 14.921875,18.9148667 L18.4685202,18.9148667 C18.7348579,18.9148667 18.951057,18.6988562 18.951057,18.43233 L18.951057,11.1098346 C18.951057,8.52223116 16.8458019,6.41716452 14.2583869,6.41716452 Z M17.9859835,17.9497932 L15.4044118,17.9497932 L15.4044118,11.9150678 C15.4044118,10.5781017 14.3166306,9.49032054 12.9796645,9.49032054 C11.6425099,9.49032054 10.5549173,10.5781017 10.5549173,11.9150678 L10.5549173,17.9497932 L7.97334559,17.9497932 L7.97334559,7.62350643 L10.373966,7.62350643 L10.373966,8.63739912 C10.373966,8.84624707 10.5081715,9.03134513 10.706841,9.09618601 C10.9051334,9.16083841 11.1230289,9.09053131 11.2461135,8.92183192 C11.9499386,7.95788936 13.0759834,7.38223805 14.2583869,7.38223805 C16.313692,7.38223805 17.9859835,9.05434105 17.9859835,11.1098346 L17.9859835,17.9497932 Z" id="Shape"></path>
                        <path d="M1.82100184,6.6584329 C1.55447565,6.6584329 1.33846507,6.87444348 1.33846507,7.14096967 L1.33846507,18.43233 C1.33846507,18.6988562 1.55447565,18.9148667 1.82100184,18.9148667 L5.36764706,18.9148667 C5.63398472,18.9148667 5.85018382,18.6988562 5.85018382,18.43233 L5.85018382,7.14096967 C5.85018382,6.87444348 5.63398472,6.6584329 5.36764706,6.6584329 L1.82100184,6.6584329 Z M4.88511029,17.9497932 L2.3035386,17.9497932 L2.3035386,7.62350643 L4.88511029,7.62350643 L4.88511029,17.9497932 Z" id="Shape"></path>
                    </g>
                </g>
                <g id="Group-3-Copy-2">
                    <path d="M20.8097346,41.1747294 C17.2274576,41.1747294 13.6892054,40.2576327 10.5654038,38.5175507 C7.39477316,36.7517765 4.73813971,34.1725119 2.88208557,31.0584605 C1.02631185,27.944409 0.0297237858,24.3935916 -3.48165941e-13,20.7897144 L0.687292443,20.7841292 C0.715894577,24.2679237 1.6793939,27.7011717 3.47403757,30.7121755 C5.26840083,33.7229 7.83698458,36.2167104 10.9021799,37.9238395 C13.9710206,39.6329234 17.4520685,40.5223731 20.9737763,40.4930506 C24.4901562,40.4645659 27.9546597,39.5097688 30.9929354,37.7314279 C34.0314914,35.9533662 36.5481988,33.4081716 38.2713371,30.3709172 C39.9958775,27.3300324 40.8926385,23.8789116 40.863756,20.3906489 C40.8351538,16.9065752 39.8713741,13.4733272 38.0770109,10.4626026 C36.2826476,7.45187814 33.7140638,4.95806775 30.6485881,3.25065938 C27.5800279,1.54157544 24.0950542,0.652684231 20.5769918,0.681727487 C17.0608922,0.71021222 13.5963887,1.66500928 10.5578326,3.44307095 C7.51955698,5.22113263 5.00256923,7.76660651 3.27971131,10.8038609 L2.68074898,10.4701427 C4.46277407,7.3284443 7.06584863,4.69584065 10.2081575,2.85662058 C13.3510273,1.01767977 16.9344259,0.03020905 20.5713835,0.000607269307 C24.215071,-0.0270396768 27.8124903,0.889777738 30.9856446,2.65694819 C34.1559948,4.4230016 36.8129087,7.00226619 38.6686824,10.1163177 C40.5247366,13.2303691 41.5213246,16.7809073 41.5510484,20.3850637 C41.5810526,23.9920127 40.654007,27.5604236 38.8702994,30.7046354 C37.0882744,33.8463338 34.4851998,36.4789375 31.3426105,38.3181575 C28.2000212,40.1570983 24.6166225,41.1445691 20.9796649,41.1741708 C20.9230215,41.1747294 20.8660976,41.1747294 20.8097346,41.1747294" id="Combined-Shape" fill="#004876"></path>
                    <path d="M20.8097346,41.1747294 C17.2274576,41.1747294 13.6892054,40.2576327 10.5654038,38.5175507 C7.39477316,36.7517765 4.73813971,34.1725119 2.88208557,31.0584605 C1.02631185,27.944409 0.0297237858,24.3935916 1.47082346e-12,20.7897144 L0.687292443,20.7841292 C0.715894577,24.2679237 1.6793939,27.7011717 3.47403757,30.7121755 C5.26840083,33.7229 7.83698458,36.2167104 10.9021799,37.9238395 C13.9710206,39.6329234 17.4520685,40.5223731 20.9737763,40.4930506 C24.4901562,40.4645659 27.9546597,39.5097688 30.9929354,37.7314279 C34.0314914,35.9533662 36.5481988,33.4081716 38.2713371,30.3709172 C39.9958775,27.3300324 40.8926385,23.8789116 40.863756,20.3906489 C40.8351538,16.9065752 39.8713741,13.4733272 38.0770109,10.4626026 C36.2826476,7.45187814 33.7140638,4.95806775 30.6485881,3.25065938 C27.5800279,1.54157544 24.0950542,0.652684231 20.5769918,0.681727487 C17.0608922,0.71021222 13.5963887,1.66500928 10.5578326,3.44307095 C7.51955698,5.22113263 5.00256923,7.76660651 3.27971131,10.8038609 L2.68074898,10.4701427 C4.46277407,7.3284443 7.06584863,4.69584065 10.2081575,2.85662058 C13.3510273,1.01767977 16.9344259,0.03020905 20.5713835,0.000607269307 C24.215071,-0.0270396768 27.8124903,0.889777738 30.9856446,2.65694819 C34.1559948,4.4230016 36.8129087,7.00226619 38.6686824,10.1163177 C40.5247366,13.2303691 41.5213246,16.7809073 41.5510484,20.3850637 C41.5810526,23.9920127 40.654007,27.5604236 38.8702994,30.7046354 C37.0882744,33.8463338 34.4851998,36.4789375 31.3426105,38.3181575 C28.2000212,40.1570983 24.6166225,41.1445691 20.9796649,41.1741708 C20.9230215,41.1747294 20.8660976,41.1747294 20.8097346,41.1747294" id="Combined-Shape" stroke="#FFFFFF" stroke-width="0.3"></path>
                </g>
            </g>
        </g>
    </g>
</svg>