<?xml version="1.0" encoding="UTF-8"?>
<svg width="12px" height="10px" viewBox="0 0 12 10" version="1.1" xmlns="http://www.w3.org/2000/svg" xmlns:xlink="http://www.w3.org/1999/xlink">
    <!-- Generator: Sketch 64 (93537) - https://sketch.com -->
    <title>icon/work</title>
    <desc>Created with Sketch.</desc>
    <g id="New" stroke="none" stroke-width="1" fill="none" fill-rule="evenodd">
        <g id="careers" transform="translate(-250.000000, -1129.000000)" fill="#004876">
            <g id="vacancy-card-copy-6" transform="translate(131.000000, 1036.000000)">
                <g id="icon/work" transform="translate(119.500000, 93.000000)">
                    <g id="suitcase">
                        <path d="M10.7709251,2.33506608 L9.01585903,2.33506608 L8.82528634,1.40229075 C8.65763554,0.593550156 7.9462839,0.0128819512 7.12035242,0.0105726872 L4.15718062,0.0105726872 C3.33114151,0.0129168149 2.61975256,0.59376253 2.4522467,1.40264317 L2.26167401,2.33506608 L0.50660793,2.33506608 C0.227059989,2.33540556 0.000485373413,2.56186197 0,2.84140969 L0,9.48281938 C0.000291374837,9.76249044 0.226936876,9.98913594 0.50660793,9.98942731 L10.7709251,9.98942731 C11.0505962,9.98913594 11.2772417,9.76249044 11.277533,9.48281938 L11.277533,2.84140969 C11.2770477,2.56186197 11.0504731,2.33540556 10.7709251,2.33506608 Z M2.75444934,1.46405286 C2.89224209,0.798526666 3.47754231,0.320610523 4.15718062,0.318678414 L7.12035242,0.318678414 C7.79999073,0.320610523 8.38529095,0.798526666 8.5230837,1.46405286 L8.70114537,2.33515419 L8.29647577,2.33515419 L8.13471366,1.54343612 C8.03505724,1.06219014 7.6118066,0.716619385 7.12035242,0.715242291 L4.15718062,0.715242291 C3.66572644,0.716619385 3.2424758,1.06219014 3.14281938,1.54343612 L2.98105727,2.33515419 L2.57638767,2.33515419 L2.75444934,1.46405286 Z M7.98167401,2.33506608 L3.29585903,2.33506608 L3.44493392,1.60511013 C3.51487722,1.26721859 3.81203914,1.02457741 4.15709251,1.02361233 L7.12035242,1.02361233 C7.4654058,1.02457741 7.76256771,1.26721859 7.83251101,1.60511013 L7.98167401,2.33506608 Z M0.308370044,2.84140969 C0.308515651,2.7319863 0.397184538,2.64331741 0.50660793,2.64317181 L10.7709251,2.64317181 C10.8803485,2.64331741 10.9690174,2.7319863 10.969163,2.84140969 L10.969163,4.54185022 C10.9682405,5.33218386 10.3277786,5.97264582 9.53744493,5.97356828 L1.74008811,5.97356828 C0.949754467,5.97264582 0.30929251,5.33218386 0.308370044,4.54185022 L0.308370044,2.84140969 Z M7.82484581,6.28193833 L8.63982379,6.28193833 L8.63982379,7.18061674 C8.6397752,7.24142092 8.59049581,7.29070031 8.52969163,7.2907489 L7.93497797,7.2907489 C7.8741939,7.29065188 7.82494284,7.24140082 7.82484581,7.18061674 L7.82484581,6.28193833 Z M2.63762115,6.28193833 L3.45259912,6.28193833 L3.45259912,7.18061674 C3.45255053,7.24142092 3.40327114,7.29070031 3.34246696,7.2907489 L2.7477533,7.2907489 C2.68696923,7.29065188 2.63771817,7.24140082 2.63762115,7.18061674 L2.63762115,6.28193833 Z M10.969163,9.48281938 C10.9690174,9.59224278 10.8803485,9.68091166 10.7709251,9.68105727 L0.50660793,9.68105727 C0.397184538,9.68091166 0.308515651,9.59224278 0.308370044,9.48281938 L0.308370044,5.52863436 C0.6326171,5.99998378 1.16798116,6.28166764 1.74008811,6.28193833 L2.3292511,6.28193833 L2.3292511,7.18061674 C2.32954235,7.41162838 2.51674167,7.59882769 2.7477533,7.59911894 L3.34246696,7.59911894 C3.5734987,7.59887613 3.76072635,7.41164848 3.76096916,7.18061674 L3.76096916,6.28193833 L7.51647577,6.28193833 L7.51647577,7.18061674 C7.51676702,7.41162838 7.70396634,7.59882769 7.93497797,7.59911894 L8.52969163,7.59911894 C8.76072337,7.59887613 8.94795102,7.41164848 8.94819383,7.18061674 L8.94819383,6.28193833 L9.53744493,6.28193833 C10.1095519,6.28166764 10.6449159,5.99998378 10.969163,5.52863436 L10.969163,9.48281938 Z" id="Shape"></path>
                    </g>
                </g>
            </g>
        </g>
    </g>
</svg>