<?xml version="1.0" encoding="UTF-8"?>
<svg width="464px" height="276px" viewBox="0 0 464 276" version="1.1" xmlns="http://www.w3.org/2000/svg" xmlns:xlink="http://www.w3.org/1999/xlink">
    <!-- Generator: Sketch 64 (93537) - https://sketch.com -->
    <title>Group 116</title>
    <desc>Created with Sketch.</desc>
    <g id="Symbols" stroke="none" stroke-width="1" fill="none" fill-rule="evenodd">
        <g id="Artboard-2" transform="translate(-189.000000, -160.000000)">
            <g id="Group-116" transform="translate(189.000000, 159.280000)">
                <g id="Group-115">
                    <path d="M206.7886,195.5154 C209.3486,195.5154 211.5816,195.9794 213.4846,196.9054 C215.3896,197.8334 216.9726,199.1084 218.2366,200.7334 C219.5006,202.3604 220.4366,204.2914 221.0436,206.5304 C221.6506,208.7684 221.9546,211.1794 221.9546,213.7674 C221.9546,216.3554 221.6506,218.7664 221.0436,221.0054 C220.4366,223.2434 219.5006,225.1744 218.2366,226.7994 C216.9726,228.4234 215.3896,229.7014 213.4846,230.6274 C211.5816,231.5534 209.3486,232.0174 206.7886,232.0174 C204.2276,232.0174 201.9946,231.5534 200.0916,230.6274 C198.1866,229.7014 196.6016,228.4234 195.3386,226.7994 C194.0746,225.1744 193.1396,223.2434 192.5326,221.0054 C191.9246,218.7664 191.6216,216.3554 191.6216,213.7674 C191.6216,211.1794 191.9246,208.7684 192.5326,206.5304 C193.1396,204.2914 194.0746,202.3604 195.3386,200.7334 C196.6016,199.1084 198.1866,197.8334 200.0916,196.9054 C201.9946,195.9794 204.2276,195.5154 206.7886,195.5154 Z M453.0531,195.5151 C454.8241,195.5151 456.4331,195.6911 457.8761,196.0401 C459.3221,196.3901 460.6671,196.9151 461.9151,197.6141 L460.5871,202.0191 C459.4721,201.4611 458.2791,201.0481 457.0171,200.7861 C455.7531,200.5251 454.4961,200.3941 453.2501,200.3941 C450.9831,200.3941 449.3341,200.8321 448.2991,201.7041 C447.2641,202.5791 446.7491,203.6811 446.7491,205.0091 C446.7491,205.9191 446.9391,206.6791 447.3151,207.2901 C447.6911,207.9011 448.1921,208.4351 448.8171,208.8881 C449.4411,209.3441 450.1611,209.7361 450.9831,210.0701 C451.8051,210.4011 452.6581,210.7231 453.5441,211.0381 C454.6941,211.4601 455.8591,211.9401 457.0411,212.4811 C458.2231,213.0231 459.2981,213.7061 460.2661,214.5281 C461.2351,215.3491 462.0221,216.3551 462.6301,217.5421 C463.2381,218.7321 463.5421,220.1831 463.5421,221.8961 C463.5421,223.6431 463.2381,225.1481 462.6301,226.4041 C462.0221,227.6631 461.1791,228.7121 460.0961,229.5521 C459.0101,230.3921 457.7131,231.0111 456.2041,231.4141 C454.6941,231.8141 453.0531,232.0171 451.2791,232.0171 C449.1131,232.0171 447.2431,231.8061 445.6661,231.3871 C444.0901,230.9691 442.6941,230.4081 441.4811,229.7091 L442.8091,225.1481 C443.8601,225.7431 445.0981,226.2231 446.5281,226.5881 C447.9551,226.9561 449.4571,227.1401 451.0341,227.1401 C453.1331,227.1401 454.8831,226.7111 456.2761,225.8551 C457.6731,224.9981 458.3701,223.6431 458.3701,221.7921 C458.3701,220.8821 458.1641,220.1031 457.7531,219.4571 C457.3431,218.8091 456.8091,218.2601 456.1531,217.8041 C455.4971,217.3501 454.7281,216.9471 453.8401,216.5981 C452.9521,216.2481 452.0501,215.9171 451.1321,215.6031 C450.1131,215.2531 449.0461,214.8341 447.9311,214.3441 C446.8161,213.8551 445.7891,213.2151 444.8521,212.4281 C443.9191,211.6441 443.1371,210.6651 442.5161,209.4941 C441.8911,208.3231 441.5771,206.8631 441.5771,205.1131 C441.5771,203.7501 441.8011,202.4911 442.2431,201.3381 C442.6861,200.1831 443.3691,199.1701 444.2871,198.2951 C445.2051,197.4221 446.3891,196.7391 447.8321,196.2511 C449.2761,195.7601 451.0151,195.5151 453.0531,195.5151 Z M10.259,196.0937 C15.741,196.0937 19.887,197.5797 22.693,200.5517 C25.5,203.5237 26.904,207.8927 26.904,213.6607 C26.904,219.5007 25.5,223.9237 22.693,226.9297 C19.887,229.9367 15.741,231.4407 10.259,231.4407 L0.263,231.4407 L0.263,196.0937 L10.259,196.0937 Z M63.9346,196.0939 L63.9346,201.0749 L48.2256,201.0749 L48.2256,210.8299 L62.9506,210.8299 L62.9506,215.7599 L48.2256,215.7599 L48.2256,226.5109 L64.2306,226.5109 L64.2306,231.4409 L43.0066,231.4409 L43.0066,196.0939 L63.9346,196.0939 Z M82.8928,196.0939 L89.3428,216.2319 L91.8548,225.9859 L91.9538,225.9859 L94.4648,216.2319 L100.9158,196.0939 L106.4808,196.0939 L94.6608,231.4409 L89.1458,231.4409 L77.3278,196.0939 L82.8928,196.0939 Z M142.0328,196.0939 L142.0328,201.0749 L126.3238,201.0749 L126.3238,210.8299 L141.0488,210.8299 L141.0488,215.7599 L126.3238,215.7599 L126.3238,226.5109 L142.3288,226.5109 L142.3288,231.4409 L121.1048,231.4409 L121.1048,196.0939 L142.0328,196.0939 Z M163.8479,196.0939 L163.8479,226.4039 L179.0149,226.4039 L179.0149,231.4409 L158.5299,231.4409 L158.5299,196.0939 L163.8479,196.0939 Z M249.385,196.0939 C251.156,196.0939 252.741,196.3819 254.134,196.9579 C255.531,197.5349 256.711,198.3319 257.682,199.3459 C258.647,200.3599 259.389,201.5469 259.896,202.9099 C260.405,204.2729 260.659,205.7429 260.659,207.3169 C260.659,208.9259 260.389,210.4199 259.848,211.8009 C259.306,213.1809 258.535,214.3889 257.532,215.4189 C256.532,216.4509 255.318,217.2619 253.888,217.8569 C252.461,218.4519 250.86,218.7479 249.086,218.7479 L243.276,218.7479 L243.276,231.4409 L237.959,231.4409 L237.959,196.0939 L249.385,196.0939 Z M282.7208,196.0934 L289.9608,213.6604 C290.6168,215.2004 291.1558,216.6594 291.5828,218.0414 C292.0098,219.4234 292.3248,220.6204 292.5188,221.6344 L292.6178,221.6344 C292.8468,220.6204 293.1678,219.4234 293.5778,218.0414 C293.9888,216.6594 294.5228,215.2004 295.1788,213.6604 L302.4668,196.0934 L308.6238,196.0934 L308.6238,231.4404 L303.4008,231.4404 L303.4008,212.0364 C303.4008,211.5104 303.4168,210.8814 303.4518,210.1474 C303.4838,209.4134 303.5258,208.6264 303.5738,207.7894 C303.6248,206.9484 303.6888,206.0924 303.7718,205.2174 C303.8538,204.3454 303.9448,203.5044 304.0408,202.7014 L303.9448,202.7014 C303.5818,204.1694 303.2058,205.5774 302.8108,206.9224 C302.4188,208.2694 301.9418,209.6054 301.3838,210.9344 L295.2268,225.8814 L289.9608,225.8814 L283.8038,210.9344 C283.2438,209.6054 282.7688,208.2694 282.3738,206.9224 C281.9818,205.5774 281.6058,204.1694 281.2428,202.7014 L281.0938,202.7014 C281.1948,203.5044 281.2908,204.3454 281.3918,205.2174 C281.4878,206.0924 281.5628,206.9484 281.6108,207.7894 C281.6618,208.6264 281.7018,209.4134 281.7338,210.1474 C281.7658,210.8814 281.7848,211.5104 281.7848,212.0364 L281.7848,231.4404 L276.5638,231.4404 L276.5638,196.0934 L282.7208,196.0934 Z M347.2791,196.0939 L347.2791,201.0749 L331.5691,201.0749 L331.5691,210.8299 L346.2921,210.8299 L346.2921,215.7599 L331.5691,215.7599 L331.5691,226.5109 L347.5721,226.5109 L347.5721,231.4409 L326.3481,231.4409 L326.3481,196.0939 L347.2791,196.0939 Z M369.4845,196.0939 L381.5005,217.5419 C382.1565,218.7319 382.7755,219.9809 383.3485,221.2929 C383.9225,222.6029 384.3915,223.8189 384.7525,224.9369 L384.8505,224.9369 C384.6535,223.6089 384.5035,222.2029 384.4075,220.7169 C384.3095,219.2309 384.2585,217.8219 384.2585,216.4939 L384.2585,196.0939 L389.5775,196.0939 L389.5775,231.4409 L384.1115,231.4409 L371.8485,210.0429 C371.1605,208.8559 370.5355,207.5969 369.9805,206.2659 C369.4205,204.9399 368.9615,203.7319 368.5995,202.6489 L368.4525,202.6489 C368.6815,203.9769 368.8445,205.3859 368.9455,206.8709 C369.0415,208.3569 369.0925,209.7469 369.0925,211.0379 L369.0925,231.4409 L363.7755,231.4409 L363.7755,196.0939 L369.4845,196.0939 Z M428.774,196.0939 L428.774,201.1279 L418.976,201.0749 L418.976,231.4409 L413.657,231.4409 L413.657,201.0749 L403.909,201.1279 L403.909,196.0939 L428.774,196.0939 Z M206.7886,200.0794 C203.5046,200.0794 201.0426,201.2774 199.4016,203.6704 C197.7596,206.0654 196.9396,209.4324 196.9396,213.7674 C196.9396,218.1024 197.7596,221.4664 199.4016,223.8624 C201.0426,226.2574 203.5046,227.4554 206.7886,227.4554 C210.0696,227.4554 212.5326,226.2574 214.1746,223.8624 C215.8156,221.4664 216.6366,218.1024 216.6366,213.7674 C216.6366,209.4324 215.8156,206.0654 214.1746,203.6704 C212.5326,201.2774 210.0696,200.0794 206.7886,200.0794 Z M10.259,201.1277 L5.581,201.1277 L5.581,226.4047 L10.259,226.4047 C12.065,226.4047 13.665,226.1617 15.061,225.6707 C16.456,225.1827 17.638,224.4307 18.607,223.4167 C19.575,222.4027 20.313,221.0927 20.822,219.4847 C21.33,217.8757 21.585,215.9337 21.585,213.6607 C21.585,211.4247 21.33,209.5097 20.822,207.9197 C20.313,206.3297 19.575,205.0257 18.607,204.0117 C17.638,202.9977 16.456,202.2647 15.061,201.8077 C13.665,201.3547 12.065,201.1277 10.259,201.1277 Z M249.385,201.1279 L243.276,201.1279 L243.276,213.7139 L249.086,213.7139 C251.058,213.7139 252.592,213.1459 253.691,212.0089 C254.792,210.8729 255.342,209.3099 255.342,207.3169 C255.342,205.4279 254.832,203.9259 253.816,202.8059 C252.797,201.6879 251.322,201.1279 249.385,201.1279 Z M165.51,126.989 L165.51,167.749 L124.75,167.749 L124.75,126.989 L165.51,126.989 Z" id="Combined-Shape" fill="#C1A01E"></path>
                    <path d="M64.906,253.0709 C67.808,253.0709 70.026,253.9139 71.56,255.5939 C73.608,257.5819 74.633,260.5539 74.633,264.5179 C74.633,268.3989 73.608,271.3739 71.56,273.4389 C70.026,275.1189 67.808,275.9619 64.906,275.9619 C62.004,275.9619 59.786,275.1189 58.252,273.4389 C56.194,271.3739 55.165,268.3989 55.165,264.5179 C55.165,260.5539 56.194,257.5819 58.252,255.5939 C59.786,253.9139 62.004,253.0709 64.906,253.0709 Z M307.7839,253.0709 C310.6839,253.0709 312.9009,253.9139 314.4379,255.5939 C316.4859,257.5819 317.5109,260.5539 317.5109,264.5179 C317.5109,268.3989 316.4859,271.3739 314.4379,273.4389 C312.9009,275.1189 310.6839,275.9619 307.7839,275.9619 C304.8819,275.9619 302.6619,275.1189 301.1289,273.4389 C299.0719,271.3739 298.0419,268.3989 298.0419,264.5179 C298.0419,260.5539 299.0719,257.5819 301.1289,255.5939 C302.6619,253.9139 304.8819,253.0709 307.7839,253.0709 Z M420.9157,253.0996 C423.0817,253.0996 424.9287,253.7056 426.4597,254.9136 C427.9877,256.1196 428.7907,257.8746 428.8657,260.1716 L424.7867,260.1716 C424.7097,258.8726 424.1657,257.9476 423.1467,257.4006 C422.4687,257.0376 421.6257,256.8556 420.6197,256.8556 C419.4997,256.8556 418.6057,257.0906 417.9357,257.5606 C417.2667,258.0296 416.9327,258.6856 416.9327,259.5266 C416.9327,260.2996 417.2617,260.8766 417.9227,261.2576 C418.3447,261.5136 419.2457,261.8096 420.6197,262.1536 L424.1837,263.0506 C425.7447,263.4396 426.9157,263.9626 427.6977,264.6186 C428.9057,265.6356 429.5117,267.1076 429.5117,269.0366 C429.5117,271.0106 428.7967,272.6516 427.3607,273.9586 C425.9257,275.2636 423.8987,275.9166 421.2817,275.9166 C418.6087,275.9166 416.5037,275.2736 414.9727,273.9876 C413.4407,272.7026 412.6777,270.9336 412.6777,268.6846 L416.7277,268.6846 C416.8587,269.6716 417.1177,270.4106 417.5017,270.8986 C418.2057,271.7896 419.4087,272.2326 421.1157,272.2326 C422.1377,272.2326 422.9677,272.1156 423.6047,271.8806 C424.8167,271.4326 425.4187,270.5946 425.4187,269.3726 C425.4187,268.6576 425.1227,268.1056 424.5307,267.7136 C423.9387,267.3346 422.9967,266.9956 421.7107,266.7026 L419.5127,266.1876 C417.3517,265.6806 415.8687,265.1286 415.0577,264.5306 C413.6917,263.5336 413.0067,261.9726 413.0067,259.8496 C413.0067,257.9126 413.6757,256.3036 415.0147,255.0236 C416.3547,253.7406 418.3207,253.0996 420.9157,253.0996 Z M328.0321,253.7322 L336.0941,268.8132 L336.0941,253.7322 L340.0471,253.7322 L340.0471,275.3592 L335.8061,275.3592 L327.5391,260.0142 L327.5391,275.3592 L323.5851,275.3592 L323.5851,253.7322 L328.0321,253.7322 Z M361.9519,253.7323 L361.9519,257.5603 L351.2039,257.5603 L351.2039,262.1543 L361.0689,262.1543 L361.0689,265.9103 L351.2039,265.9103 L351.2039,271.4693 L362.4459,271.4693 L362.4459,275.3593 L347.0579,275.3593 L347.0579,253.7323 L361.9519,253.7323 Z M83.5376,253.7322 L86.2186,266.1182 L86.8026,269.5652 L87.3886,266.1872 L89.6826,253.7322 L94.1606,253.7322 L96.5736,266.1152 L97.1906,269.5652 L97.8176,266.2492 L100.5246,253.7322 L104.8446,253.7322 L99.1316,275.3592 L95.0686,275.3592 L92.6176,262.7112 L91.9006,258.5292 L91.1846,262.7112 L88.7316,275.3592 L84.7916,275.3592 L79.0336,253.7322 L83.5376,253.7322 Z M125.3298,253.7323 L125.3298,257.5603 L114.5828,257.5603 L114.5828,262.1543 L124.4468,262.1543 L124.4468,265.9103 L114.5828,265.9103 L114.5828,271.4693 L125.8248,271.4693 L125.8248,275.3593 L110.4358,275.3593 L110.4358,253.7323 L125.3298,253.7323 Z M141.848,253.7323 C143.235,253.7613 144.304,253.9453 145.052,254.2893 C145.799,254.6313 146.433,255.1353 146.953,255.7993 C147.382,256.3493 147.722,256.9543 147.973,257.6193 C148.224,258.2863 148.349,259.0433 148.349,259.8943 C148.349,260.9213 148.107,261.9303 147.62,262.9253 C147.133,263.9173 146.329,264.6193 145.208,265.0303 C146.146,265.4303 146.809,266.0013 147.2,266.7403 C147.59,267.4793 147.785,268.6043 147.785,270.1203 L147.785,271.5733 C147.785,272.5603 147.822,273.2303 147.897,273.5823 C148.009,274.1423 148.271,274.5533 148.68,274.8153 L148.68,275.3593 L143.997,275.3593 C143.868,274.8793 143.776,274.4953 143.721,274.2013 C143.61,273.5933 143.55,272.9713 143.542,272.3363 L143.514,270.3283 C143.497,268.9463 143.273,268.0283 142.843,267.5693 C142.412,267.1083 141.607,266.8783 140.425,266.8783 L136.282,266.8783 L136.282,275.3593 L132.135,275.3593 L132.135,253.7323 L141.848,253.7323 Z M170.3379,253.7323 L170.3379,257.5603 L159.5909,257.5603 L159.5909,262.1543 L169.4549,262.1543 L169.4549,265.9103 L159.5909,265.9103 L159.5909,271.4693 L170.8329,271.4693 L170.8329,275.3593 L155.4439,275.3593 L155.4439,253.7323 L170.3379,253.7323 Z M185.7997,253.7323 C187.0587,253.7513 188.1077,253.9083 188.9437,254.2013 C190.3687,254.7003 191.5217,255.6153 192.4047,256.9443 C193.1117,258.0223 193.5947,259.1853 193.8527,260.4363 C194.1097,261.6903 194.2377,262.8823 194.2377,264.0163 C194.2377,266.8923 193.6957,269.3303 192.6117,271.3253 C191.1407,274.0143 188.8707,275.3593 185.7997,275.3593 L177.0447,275.3593 L177.0447,253.7323 L185.7997,253.7323 Z M220.9545,253.7325 C223.4315,253.7695 225.1855,254.5375 226.2185,256.0345 C226.8395,256.9545 227.1505,258.0535 227.1505,259.3365 C227.1505,260.6575 226.8375,261.7195 226.2105,262.5225 C225.8595,262.9705 225.3435,263.3815 224.6615,263.7545 C225.6965,264.1545 226.4795,264.7895 227.0065,265.6595 C227.5345,266.5315 227.7975,267.5885 227.7975,268.8285 C227.7975,270.1115 227.4955,271.2615 226.8935,272.2775 C226.5105,272.9525 226.0305,273.5215 225.4555,273.9795 C224.8065,274.5085 224.0425,274.8705 223.1605,275.0655 C222.2795,275.2605 221.3225,275.3595 220.2915,275.3595 L211.1415,275.3595 L211.1415,253.7325 L220.9545,253.7325 Z M43.0129,253.7319 C45.0239,253.7319 46.6259,254.2899 47.8209,255.4049 C49.0159,256.5199 49.6139,258.2459 49.6139,260.5829 C49.6139,263.1359 49.0189,264.9419 47.8309,265.9979 C46.6419,267.0549 44.9439,267.5829 42.7379,267.5829 L38.5099,267.5829 L38.5099,275.3589 L34.2949,275.3589 L34.2949,253.7319 L43.0129,253.7319 Z M237.6877,253.7322 L241.9027,263.1522 L245.9417,253.7322 L250.7487,253.7322 L243.9567,267.2492 L243.9567,275.3592 L239.7157,275.3592 L239.7157,267.2492 L232.6887,253.7322 L237.6877,253.7322 Z M275.1453,253.7319 C277.1563,253.7319 278.7593,254.2899 279.9553,255.4049 C281.1503,256.5199 281.7473,258.2459 281.7473,260.5829 C281.7473,263.1359 281.1503,264.9419 279.9633,265.9979 C278.7753,267.0549 277.0763,267.5829 274.8703,267.5829 L270.6423,267.5829 L270.6423,275.3589 L266.4273,275.3589 L266.4273,253.7319 L275.1453,253.7319 Z M291.928,253.732 L291.928,275.359 L287.71,275.359 L287.71,253.732 L291.928,253.732 Z M400.1965,253.7323 C401.5835,253.7613 402.6525,253.9453 403.3995,254.2893 C404.1465,254.6313 404.7815,255.1353 405.2995,255.7993 C405.7315,256.3493 406.0705,256.9543 406.3215,257.6193 C406.5715,258.2863 406.6975,259.0433 406.6975,259.8943 C406.6975,260.9213 406.4545,261.9303 405.9665,262.9253 C405.4805,263.9173 404.6755,264.6193 403.5545,265.0303 C404.4935,265.4303 405.1555,266.0013 405.5475,266.7403 C405.9395,267.4793 406.1315,268.6043 406.1315,270.1203 L406.1315,271.5733 C406.1315,272.5603 406.1685,273.2303 406.2435,273.5823 C406.3555,274.1423 406.6175,274.5533 407.0275,274.8153 L407.0275,275.3593 L402.3435,275.3593 C402.2155,274.8793 402.1245,274.4953 402.0685,274.2013 C401.9595,273.5933 401.8975,272.9713 401.8895,272.3363 L401.8635,270.3283 C401.8445,268.9463 401.6205,268.0283 401.1915,267.5693 C400.7585,267.1083 399.9535,266.8783 398.7745,266.8783 L394.6285,266.8783 L394.6285,275.3593 L390.4825,275.3593 L390.4825,253.7323 L400.1965,253.7323 Z M383.6776,253.7323 L383.6776,257.5603 L372.9296,257.5603 L372.9296,262.1543 L382.7946,262.1543 L382.7946,265.9103 L372.9296,265.9103 L372.9296,271.4693 L384.1716,271.4693 L384.1716,275.3593 L368.7836,275.3593 L368.7836,253.7323 L383.6776,253.7323 Z M64.906,256.9019 C63.224,256.9019 61.884,257.5599 60.884,258.8809 C59.882,260.2009 59.382,262.0799 59.382,264.5179 C59.382,266.9509 59.882,268.8289 60.884,270.1519 C61.884,271.4699 63.224,272.1309 64.906,272.1309 C66.587,272.1309 67.921,271.4699 68.908,270.1519 C69.895,268.8289 70.389,266.9509 70.389,264.5179 C70.389,262.0899 69.895,260.2149 68.908,258.8889 C67.921,257.5629 66.587,256.9019 64.906,256.9019 Z M307.7839,256.9019 C306.1009,256.9019 304.7589,257.5599 303.7619,258.8809 C302.7589,260.2009 302.2569,262.0799 302.2569,264.5179 C302.2569,266.9509 302.7589,268.8289 303.7619,270.1519 C304.7589,271.4699 306.1009,272.1309 307.7839,272.1309 C309.4649,272.1309 310.7989,271.4699 311.7859,270.1519 C312.7729,268.8289 313.2639,266.9509 313.2639,264.5179 C313.2639,262.0899 312.7729,260.2149 311.7859,258.8889 C310.7989,257.5629 309.4649,256.9019 307.7839,256.9019 Z M185.0837,257.4883 L181.1647,257.4883 L181.1647,271.6033 L185.0837,271.6033 C187.0887,271.6033 188.4867,270.5523 189.2767,268.4503 C189.7097,267.2943 189.9267,265.9213 189.9267,264.3253 C189.9267,262.1243 189.6017,260.4333 188.9527,259.2573 C188.3047,258.0783 187.0147,257.4883 185.0837,257.4883 Z M220.1905,265.8355 L215.1925,265.8355 L215.1925,271.6035 L220.1225,271.6035 C221.0025,271.6035 221.6885,271.4755 222.1775,271.2215 C223.0675,270.7525 223.5135,269.8535 223.5135,268.5215 C223.5135,267.3965 223.0825,266.6255 222.2195,266.2035 C221.7375,265.9685 221.0615,265.8465 220.1905,265.8355 Z M42.3339,257.4879 L38.5099,257.4879 L38.5099,263.8559 L42.3339,263.8559 C43.3019,263.8559 44.0539,263.5969 44.5919,263.0769 C45.1299,262.5599 45.3979,261.7379 45.3979,260.6119 C45.3979,259.4889 45.1299,258.6859 44.5919,258.2059 C44.0539,257.7279 43.3019,257.4879 42.3339,257.4879 Z M274.4643,257.4879 L270.6423,257.4879 L270.6423,263.8559 L274.4643,263.8559 C275.4353,263.8559 276.1883,263.5969 276.7243,263.0769 C277.2603,262.5599 277.5303,261.7379 277.5303,260.6119 C277.5303,259.4889 277.2603,258.6859 276.7243,258.2059 C276.1883,257.7279 275.4353,257.4879 274.4643,257.4879 Z M140.965,257.4883 L136.282,257.4883 L136.282,263.2983 L140.848,263.2983 C141.755,263.2983 142.435,263.1813 142.889,262.9463 C143.692,262.5353 144.093,261.7223 144.093,260.5113 C144.093,259.1983 143.705,258.3183 142.929,257.8693 C142.492,257.6133 141.837,257.4883 140.965,257.4883 Z M399.3125,257.4883 L394.6285,257.4883 L394.6285,263.2983 L399.1955,263.2983 C400.1025,263.2983 400.7825,263.1813 401.2365,262.9463 C402.0395,262.5353 402.4395,261.7223 402.4395,260.5113 C402.4395,259.1983 402.0525,258.3183 401.2765,257.8693 C400.8385,257.6133 400.1855,257.4883 399.3125,257.4883 Z M219.6085,257.4885 L215.1925,257.4885 L215.1925,262.2555 L220.1275,262.2555 C221.0095,262.2555 221.7245,262.0765 222.2755,261.7215 C222.8245,261.3645 223.0995,260.7295 223.0995,259.8195 C223.0995,258.8145 222.7365,258.1475 222.0085,257.8245 C221.3815,257.6005 220.5815,257.4885 219.6085,257.4885 Z" id="Combined-Shape" fill="#FFFFFF"></path>
                    <path d="M89.9013,0.7579 C116.5923,0.7579 138.5753,23.9319 138.5753,52.3619 C138.5753,81.0289 116.5923,104.2039 89.9013,104.2039 L38.5353,104.2039 L38.5353,167.7499 L0.4043,167.7499 L0.4043,0.7579 L89.9013,0.7579 Z M255.0071,0.7581 C281.6981,0.7581 303.6811,23.9321 303.6811,52.3621 C303.6811,70.9951 294.2601,87.4781 280.3531,96.5571 L280.3531,96.5571 L307.2691,167.7491 L265.3251,167.7491 L241.9971,104.2041 L203.6411,104.2041 L203.6411,126.9891 L165.5101,126.9891 L165.5101,0.7581 Z M463.6267,0.758 L463.6267,41.609 L379.0647,41.609 L379.0647,63.828 L463.6267,63.828 L463.6267,104.442 L379.0647,104.442 L379.0647,126.66 L463.6267,126.66 L463.6267,167.274 L340.9337,167.274 L340.9337,0.758 L463.6267,0.758 Z M255.0071,41.3711 L203.6411,41.3711 L203.6411,63.5901 L255.0071,63.5901 C260.6151,63.5901 265.3251,58.5731 265.3251,52.3621 C265.3251,46.3891 260.6151,41.3711 255.0071,41.3711 L255.0071,41.3711 Z M89.9013,41.3719 L38.5353,41.3719 L38.5353,63.5899 L89.9013,63.5899 C95.5093,63.5899 100.2193,58.5729 100.2193,52.3619 C100.2193,46.3889 95.5093,41.3719 89.9013,41.3719 Z" id="Combined-Shape" fill="#FFFFFF"></path>
                </g>
            </g>
        </g>
    </g>
</svg>