<svg width="80" height="29" viewBox="0 0 80 29" xmlns="http://www.w3.org/2000/svg"><g fill="none" fill-rule="evenodd"><path d="M15.306 0c4.565 0 8.324 3.966 8.324 8.832 0 4.906-3.76 8.872-8.324 8.872H6.52v10.875H0V0h15.306zm28.237 0c4.564 0 8.324 3.966 8.324 8.832 0 3.188-1.611 6.01-3.99 7.563L52.48 28.58h-7.173l-3.99-10.875h-6.56v3.9h-6.52V0zM79.22 0v6.991H64.759v3.803h14.462v6.95H64.759v3.803h14.462v6.95H58.238V0H79.22zM15.306 6.95H6.52v3.803h8.785c.959 0 1.764-.858 1.764-1.921 0-1.023-.805-1.881-1.764-1.881zm28.237 0h-8.785v3.803h8.785c.959 0 1.764-.858 1.764-1.921 0-1.023-.805-1.881-1.764-1.881z" fill="#003A70"/><path fill="#C1A01E" d="M21.266 28.579h6.97v-6.976h-6.97z"/></g></svg>