<?xml version="1.0" encoding="UTF-8"?>
<svg width="136px" height="56px" viewBox="0 0 136 56" version="1.1" xmlns="http://www.w3.org/2000/svg" xmlns:xlink="http://www.w3.org/1999/xlink">
    <!-- Generator: Sketch 64 (93537) - https://sketch.com -->
    <title>Group</title>
    <desc>Created with Sketch.</desc>
    <g id="Symbols" stroke="none" stroke-width="1" fill="none" fill-rule="evenodd">
        <g id="header-copy-2" transform="translate(0.000000, -6.000000)" fill="#FFFFFF">
            <g id="Group" transform="translate(0.000000, 6.000000)">
                <path d="M70.1280643,14.1541501 C69.7279571,13.7893244 69.4577158,13.6512011 68.3227024,13.0679303 L68.1233995,12.9658391 C67.5472601,12.6727024 67.2788954,12.3521662 67.2788954,11.9573137 C67.2788954,11.8023003 67.3423271,11.0294853 68.594445,11.0294853 C69.4899946,11.0294853 70.3116032,11.5016568 70.5424343,11.6465362 L70.6013619,11.6840697 L70.6013619,9.84717962 L70.5788418,9.83667024 C69.8882252,9.52213941 69.0936408,9.36262198 68.2176086,9.36262198 C66.4032386,9.36262198 64.9818445,10.5359196 64.9818445,12.0335067 C64.9818445,12.657689 65.2325684,13.1951689 65.7479035,13.6767239 C66.2196997,14.1196193 66.4370188,14.2292172 67.8512815,14.9419786 C68.519378,15.2764021 68.6117105,15.5695389 68.6117105,15.8360268 C68.6117105,16.1614424 68.3305845,16.7766166 67.2680107,16.7766166 C66.557126,16.7766166 65.7464021,16.4827292 65.0433995,15.9703968 L64.9818445,15.9253566 L64.9818445,17.9881984 L65.009244,17.9968311 C66.0995925,18.336134 66.7417909,18.4566166 67.4635603,18.4566166 C69.4836139,18.4566166 70.8944987,17.3891635 70.8944987,15.8615496 C70.8944987,15.0962413 70.4981448,14.477689 70.1280643,14.1541501" id="Fill-724"></path>
                <path d="M77.636756,9.46418767 L75.1295174,9.46418767 L71.3551475,18.3543753 L73.7711796,18.3543753 L74.4831903,16.5869223 L78.5642091,16.5869223 L79.3497855,18.3318552 L79.3599196,18.3543753 L81.8048525,18.3543753 L77.6468901,9.48670777 L77.636756,9.46418767 Z M77.8871046,15.1107292 L75.0867292,15.1107292 L76.4131635,11.838933 L77.8871046,15.1107292 Z" id="Fill-726"></path>
                <path d="M89.4109062,14.0302145 C89.4109062,14.8826005 89.2724075,15.4996515 88.9995389,15.8641019 C88.5273673,16.5096783 87.6682252,16.7386327 87.0763217,16.7386327 C86.4224879,16.7386327 85.7855442,16.5002949 85.3719249,16.1009383 C84.8742306,15.6231367 84.7833995,15.0289812 84.7833995,14.0302145 L84.7833995,9.46426273 L82.4724611,9.46426273 L82.4724611,14.6660322 C82.4724611,15.8948794 82.9273673,16.6215282 83.1221662,16.8763807 C84.1723539,18.2928954 85.9615764,18.4565416 87.2159464,18.4565416 C88.9736408,18.4565416 90.2122466,17.9648525 91.0012011,16.9540751 C91.7218445,16.0480161 91.7218445,15.0665147 91.7218445,14.5391689 L91.7218445,9.46426273 L89.4109062,9.46426273 L89.4109062,14.0302145 Z" id="Fill-727"></path>
                <path d="M97.210445,9.46418767 L94.058756,9.46418767 L94.058756,18.3543753 L97.210445,18.3543753 C98.3465845,18.3543753 99.4027775,18.1820965 100.184225,17.8686917 C100.988944,17.5496568 102.861115,16.5291206 102.861115,13.941185 C102.861115,12.6440268 102.40133,11.556681 101.494895,10.7084236 C100.68192,9.9401126 99.6816515,9.46418767 97.210445,9.46418767 M100.480365,13.9156622 C100.480365,14.3439196 100.365137,15.7908365 98.8840643,16.4367882 C98.3026702,16.6890134 97.5786488,16.737807 96.3696944,16.7385576 L96.3696944,11.1059035 C97.7498016,11.1066542 98.4257802,11.1554477 99.0079249,11.4448311 C99.9162359,11.9016139 100.480365,12.8485845 100.480365,13.9156622" id="Fill-729"></path>
                <polygon id="Fill-732" points="104.751078 18.3544879 107.062016 18.3544879 107.062016 9.46430027 104.751078 9.46430027"></polygon>
                <polygon id="Fill-733" points="67.3799357 28.8455925 71.1077641 28.8455925 71.1077641 27.2549223 67.3799357 27.2549223 67.3799357 25.3482198 71.2612761 25.3482198 71.2612761 23.7579249 65.0689973 23.7579249 65.0689973 32.6481126 71.3310885 32.6481126 71.3310885 31.0574424 67.3799357 31.0574424"></polygon>
                <path d="M78.1213512,29.5707024 L79.1126113,29.5707024 L79.1126113,30.9222842 C78.9073029,30.9451796 78.6937373,30.9560643 78.4253727,30.9560643 C75.8599571,30.9560643 74.9460161,29.5241609 74.9460161,28.1838391 C74.9460161,26.5184772 76.2934692,25.3992279 78.2996354,25.3992279 C79.2571153,25.3992279 80.2269812,25.6004075 81.1041394,25.9809973 L81.1581877,26.0042681 L81.1581877,24.1636247 L81.1326649,24.1542413 C80.1733083,23.8096836 79.2563646,23.6561716 78.1600107,23.6561716 C74.2756676,23.6561716 72.5374906,25.9622306 72.5374906,28.2472708 C72.5374906,30.4242145 74.0144343,32.7501662 78.1600107,32.7501662 C79.4947024,32.7501662 80.6432279,32.5752601 81.3912708,32.4442681 L81.4231743,32.4386381 L81.4231743,27.9800322 L78.1213512,27.9800322 L78.1213512,29.5707024 Z" id="Fill-734"></path>
                <polygon id="Fill-736" points="87.1915121 26.4671314 85.1279196 23.7729759 85.1162842 23.7575871 82.3943539 23.7575871 86.0497426 28.4898123 86.0497426 32.6481501 88.360681 32.6481501 88.360681 28.4898123 92.0021823 23.7575871 89.280252 23.7575871"></polygon>
                <path d="M97.0183861,23.7577748 L93.2383861,23.7577748 L93.2383861,32.6479625 L95.5493244,32.6479625 L95.5493244,29.0492493 L96.5578499,29.0492493 C97.2357051,29.0492493 98.0164021,29.0252279 98.7085201,28.7407239 C99.4280375,28.4442091 100.268038,27.6638874 100.268038,26.4414209 C100.268038,25.7489276 99.9861609,25.0887131 99.4745791,24.5827614 C98.7355442,23.8576139 97.8572601,23.7577748 97.0183861,23.7577748 L97.0183861,23.7577748 Z M95.5493244,25.348445 L96.4463753,25.348445 C96.7845523,25.348445 97.1347399,25.348445 97.3918445,25.483941 C97.7146327,25.6502145 97.9150617,26.0124129 97.9150617,26.4286595 C97.9150617,26.5555228 97.8835335,27.1977212 97.2578499,27.3966488 C97.0735603,27.4567024 96.8299678,27.4964879 96.236563,27.4964879 L95.5493244,27.4964879 L95.5493244,25.348445 Z" id="Fill-737"></path>
                <polygon id="Fill-739" points="100.664729 25.3483324 104.029233 25.3483324 104.029233 32.6482252 106.339796 32.6482252 106.339796 25.3483324 109.7043 25.3483324 109.7043 23.7576622 100.664729 23.7576622"></polygon>
                <polygon id="Fill-740" points="111.133651 32.648 113.44459 32.648 113.44459 23.7578123 111.133651 23.7578123"></polygon>
                <path d="M121.178408,23.7577748 L118.671169,23.7577748 L114.897174,32.6479625 L117.312831,32.6479625 L118.024842,30.8805094 L122.106236,30.8805094 L122.891437,32.6254424 L122.901946,32.6479625 L125.346879,32.6479625 L121.188917,23.7799196 L121.178408,23.7577748 Z M121.429131,29.4043164 L118.628381,29.4043164 L119.954815,26.1325201 L121.429131,29.4043164 Z" id="Fill-741"></path>
                <polygon id="Fill-742" points="133.678456 23.7577748 133.678456 29.2166488 128.691753 23.7705362 128.680493 23.7577748 126.656311 23.7577748 126.656311 32.6479625 128.869287 32.6479625 128.869287 27.087748 133.925802 32.6355764 133.937437 32.6479625 135.891432 32.6479625 135.891432 23.7577748"></polygon>
                <path d="M67.7239303,38.0586059 C70.6740643,38.0586059 73.2199625,39.1722252 73.2199625,42.1861662 C73.2199625,45.2001072 70.6740643,46.3137265 67.7239303,46.3137265 L64.8818928,46.3137265 L64.8818928,38.0586059 L67.7239303,38.0586059 Z M65.8919196,45.5146381 L67.7914906,45.5146381 C69.6771743,45.5146381 72.142,44.9820375 72.142,42.1861662 C72.142,39.3899196 69.6771743,38.857319 67.7914906,38.857319 L65.8919196,38.857319 L65.8919196,45.5146381 Z" id="Fill-743"></path>
                <polygon id="Fill-745" points="80.047496 38.8574316 75.9390777 38.8574316 75.9390777 41.7501394 79.9266381 41.7501394 79.9266381 42.5492279 75.9390777 42.5492279 75.9390777 45.5147507 80.1555925 45.5147507 80.1555925 46.3134638 74.9290509 46.3134638 74.9290509 38.0587185 80.047496 38.0587185"></polygon>
                <polygon id="Fill-746" points="84.7745416 46.3982895 84.5189383 46.3982895 80.5989383 38.0587185 81.6228525 38.0587185 84.6401716 44.4495496 87.6300912 38.0587185 88.6404933 38.0587185"></polygon>
                <polygon id="Fill-747" points="94.8627989 38.8574316 90.7543807 38.8574316 90.7543807 41.7501394 94.7415657 41.7501394 94.7415657 42.5492279 90.7543807 42.5492279 90.7543807 45.5147507 94.9705201 45.5147507 94.9705201 46.3134638 89.7439786 46.3134638 89.7439786 38.0587185 94.8627989 38.0587185"></polygon>
                <polygon id="Fill-748" points="97.4749062 45.5147507 101.812279 45.5147507 101.812279 46.3134638 96.464504 46.3134638 96.464504 38.0587185 97.4749062 38.0587185"></polygon>
                <path d="M102.12133,42.1861287 C102.12133,40.0073083 103.939828,37.9497212 107.024332,37.9497212 C110.015003,37.9497212 111.941223,39.9348686 111.941223,42.1861287 C111.941223,44.6554584 109.732,46.4225362 106.97066,46.4225362 C104.276504,46.4225362 102.12133,44.6190509 102.12133,42.1861287 M110.863635,42.1617319 C110.863635,40.5278981 109.462885,38.8088633 107.024332,38.8088633 C104.667228,38.8088633 103.198917,40.4190509 103.198917,42.1981394 C103.198917,44.2073083 104.990767,45.5630188 106.957147,45.5630188 C109.152858,45.5630188 110.863635,44.1468794 110.863635,42.1617319" id="Fill-749"></path>
                <path d="M116.277056,38.0586059 C118.580488,38.0586059 119.307887,39.1962466 119.307887,40.322252 C119.307887,41.447882 118.580488,42.5855228 116.277056,42.5855228 L114.660488,42.5855228 L114.660488,46.3137265 L113.650086,46.3137265 L113.650086,38.0586059 L116.277056,38.0586059 Z M114.660488,38.857319 L114.660488,41.7864343 L116.169335,41.7864343 C118.014483,41.7864343 118.2303,40.9152815 118.2303,40.322252 C118.2303,39.7288472 118.014483,38.857319 116.169335,38.857319 L114.660488,38.857319 Z" id="Fill-751"></path>
                <polygon id="Fill-754" points="125.718686 38.8574316 121.610268 38.8574316 121.610268 41.7501394 125.597453 41.7501394 125.597453 42.5492279 121.610268 42.5492279 121.610268 45.5147507 125.826408 45.5147507 125.826408 46.3134638 120.599866 46.3134638 120.599866 38.0587185 125.718686 38.0587185"></polygon>
                <path d="M129.664472,38.0586059 C132.048601,38.0586059 132.694928,39.2810724 132.694928,40.2734584 C132.694928,41.3994638 131.927367,42.004504 131.05171,42.2950134 C131.711925,42.6823592 132.169834,43.323807 133.301094,44.9216086 C133.691818,45.4782306 133.894123,45.7327078 134.352032,46.3137265 L133.1397,46.3137265 L132.264043,45.0668633 C131.900718,44.5462735 131.496483,44.026059 131.078735,43.5418767 C130.48608,42.8640214 129.974123,42.5371046 128.990745,42.5371046 L128.330906,42.5371046 L128.330906,46.3137265 L127.320504,46.3137265 L127.320504,38.0586059 L129.664472,38.0586059 Z M128.330906,38.857319 L128.330906,41.7383914 L129.516214,41.7383914 C130.822756,41.7383914 131.617716,41.2298123 131.617716,40.2858445 C131.617716,39.4263271 130.916965,38.857319 129.516214,38.857319 L128.330906,38.857319 Z" id="Fill-755"></path>
                <path d="M7.30101877,31.3952815 L9.37774799,31.3952815 C9.15930295,30.2606434 9.04182306,29.0903485 9.04182306,27.8926542 C9.04182306,26.6945845 9.16230563,25.5246649 9.38112601,24.3896515 L7.30101877,24.3896515 C8.97201072,14.5348525 17.5690617,7.00563003 27.8922788,7.00563003 C36.7963539,7.00563003 44.4156568,12.6071314 47.4153351,20.4700268 L54.7805362,20.4700268 C51.522252,8.68187668 40.7028418,-4.61852778e-14 27.8922788,-4.61852778e-14 C12.5125469,-4.61852778e-14 1.42108547e-14,12.5125469 1.42108547e-14,27.8926542 C1.42108547e-14,29.0787131 0.0750670241,30.2475067 0.219571046,31.3952815 L3.8708311,31.3952815 L7.30101877,31.3952815 Z" id="Fill-759"></path>
                <path d="M27.8923914,44.6274584 C34.4555013,44.6274584 40.1452064,40.8283164 42.8855282,35.3150188 L34.172874,35.3150188 C32.4767346,36.7521769 30.2847775,37.6218284 27.8923914,37.6218284 C23.7622038,37.6218284 20.2272976,35.0338928 18.8179142,31.3953941 L34.6619357,31.3953941 C35.1922842,30.3399517 35.4959303,29.1520161 35.4959303,27.8923914 C35.4959303,26.6331421 35.1919088,25.4452064 34.661185,24.3897641 L18.8175389,24.3897641 C20.2272976,20.7512654 23.7622038,18.1625791 27.8923914,18.1625791 C30.2847775,18.1625791 32.4767346,19.0322306 34.172874,20.4697641 L42.8859035,20.4697641 C40.1455818,14.9568418 34.4555013,11.1573244 27.8923914,11.1573244 C19.8658499,11.1573244 13.1439732,16.8380214 11.5289062,24.3897641 L11.5270295,24.3897641 C11.2853137,25.5191475 11.1569491,26.6905684 11.1569491,27.8923914 C11.1569491,29.1039732 11.2894424,30.2840268 11.5352869,31.4220429 C13.1604879,38.9598981 19.8756086,44.6274584 27.8923914,44.6274584" id="Fill-761"></path>
                <path d="M55.5654745,24.3897641 L36.9563592,24.3897641 C37.3771099,25.4767346 37.6109437,26.6567882 37.6109437,27.8923914 C37.6109437,29.12837 37.3759839,30.3080483 36.9552332,31.3953941 L48.4840268,31.3953941 C46.8126595,41.250193 38.2159839,48.7794155 27.8923914,48.7794155 C18.9883164,48.7794155 11.3693887,43.1779142 8.36971046,35.3150188 L1.00450938,35.3150188 C4.26241823,47.1031689 15.0822038,55.7850456 27.8923914,55.7850456 C43.2724987,55.7850456 55.7846702,43.2724987 55.7846702,27.8923914 C55.7846702,26.7063324 55.7099786,25.5371635 55.5654745,24.3897641" id="Fill-763"></path>
            </g>
        </g>
    </g>
</svg>