<?xml version="1.0" encoding="UTF-8"?><svg xmlns="http://www.w3.org/2000/svg" xmlns:xlink="http://www.w3.org/1999/xlink"><defs><svg viewBox="0 0 106 104" id="icon-cursor" xmlns="http://www.w3.org/2000/svg"><g transform="translate(-8 -7)" fill="none" fill-rule="evenodd"><ellipse stroke="#004876" cx="60.524" cy="59" rx="52" ry="51"/><text font-family="GillSans, Gill Sans" font-size="18" fill="#004876"><tspan x="41.831" y="65">View</tspan></text></g></svg><svg viewBox="0 0 21 12" id="icon-down" xmlns="http://www.w3.org/2000/svg"><path d="M9.55 10.728L1.266 2.445A1.349 1.349 0 113.174.537l7.33 7.33 7.329-7.33a1.35 1.35 0 011.907 1.908l-8.283 8.283a1.345 1.345 0 01-1.907 0z" fill="#004876" fill-rule="evenodd"/></svg><svg viewBox="0 0 43 42" id="icon-facebook" xmlns="http://www.w3.org/2000/svg"><g fill="none" fill-rule="evenodd"><path d="M4.583 9.272a21.086 21.086 0 018.053-6.867A20.652 20.652 0 0123.153.389a20.412 20.412 0 0110.064 3.53l-.39.566a19.731 19.731 0 00-9.73-3.412A19.967 19.967 0 0012.929 3.02a20.384 20.384 0 00-7.882 6.777 20.188 20.188 0 00-3.484 9.791 19.959 19.959 0 001.854 10.184 19.925 19.925 0 006.689 7.848 19.732 19.732 0 009.73 3.412 19.968 19.968 0 0010.17-1.949 20.396 20.396 0 007.88-6.776 20.192 20.192 0 003.485-9.791 19.958 19.958 0 00-1.855-10.184l.617-.3a20.644 20.644 0 011.92 10.533 20.888 20.888 0 01-3.605 10.128 21.1 21.1 0 01-8.15 7.007 20.654 20.654 0 01-10.517 2.015 20.408 20.408 0 01-10.065-3.529A20.595 20.595 0 012.8 30.072 20.643 20.643 0 01.882 19.54 20.886 20.886 0 014.486 9.412l.097-.14" fill="#FFF"/><path d="M4.583 9.272a21.086 21.086 0 018.053-6.867A20.652 20.652 0 0123.153.389a20.412 20.412 0 0110.064 3.53l-.39.566a19.731 19.731 0 00-9.73-3.412A19.967 19.967 0 0012.929 3.02a20.384 20.384 0 00-7.882 6.777 20.188 20.188 0 00-3.484 9.791 19.959 19.959 0 001.854 10.184 19.925 19.925 0 006.689 7.848 19.732 19.732 0 009.73 3.412 19.968 19.968 0 0010.17-1.949 20.396 20.396 0 007.88-6.776 20.192 20.192 0 003.485-9.791 19.958 19.958 0 00-1.855-10.184l.617-.3a20.644 20.644 0 011.92 10.533 20.888 20.888 0 01-3.605 10.128 21.1 21.1 0 01-8.15 7.007 20.654 20.654 0 01-10.517 2.015 20.408 20.408 0 01-10.065-3.529A20.595 20.595 0 012.8 30.072 20.643 20.643 0 01.882 19.54 20.886 20.886 0 014.486 9.412l.097-.14" stroke="#FFF" stroke-width=".3"/><g stroke="#FFF" stroke-linecap="round" stroke-linejoin="round"><path d="M26 14.32v-3.18a23.577 23.577 0 00-2.66-.14c-2.632 0-4.435 1.656-4.435 4.7v2.8H16v3.555h2.905V31h3.562v-8.944h2.787l.443-3.555h-3.231v-2.45c0-1.027.277-1.73 1.709-1.73h1.826z"/></g></g></svg><svg viewBox="0 0 43 43" id="icon-facebook-blue" xmlns="http://www.w3.org/2000/svg"><g fill="none" fill-rule="evenodd"><path d="M21.81 42.175c-3.583 0-7.12-.917-10.245-2.657a20.652 20.652 0 01-7.683-7.46A20.412 20.412 0 011 21.79l.687-.006a19.731 19.731 0 002.787 9.928 19.967 19.967 0 007.428 7.212 20.384 20.384 0 0010.072 2.57 20.188 20.188 0 0010.019-2.763 19.959 19.959 0 007.278-7.36 19.925 19.925 0 002.593-9.98 19.732 19.732 0 00-2.787-9.928 19.968 19.968 0 00-7.428-7.212 20.396 20.396 0 00-10.072-2.57c-3.516.03-6.98.984-10.02 2.762a19.958 19.958 0 00-7.277 7.36l-.6-.333a20.644 20.644 0 017.528-7.613A20.888 20.888 0 0121.571 1a21.1 21.1 0 0110.415 2.656 20.654 20.654 0 017.683 7.46 20.408 20.408 0 012.882 10.268 20.595 20.595 0 01-2.68 10.32 20.643 20.643 0 01-7.528 7.613 20.886 20.886 0 01-10.363 2.856h-.17" fill="#004876"/><path d="M21.81 42.175c-3.583 0-7.12-.917-10.245-2.657a20.652 20.652 0 01-7.683-7.46A20.412 20.412 0 011 21.79l.687-.006a19.731 19.731 0 002.787 9.928 19.967 19.967 0 007.428 7.212 20.384 20.384 0 0010.072 2.57 20.188 20.188 0 0010.019-2.763 19.959 19.959 0 007.278-7.36 19.925 19.925 0 002.593-9.98 19.732 19.732 0 00-2.787-9.928 19.968 19.968 0 00-7.428-7.212 20.396 20.396 0 00-10.072-2.57c-3.516.03-6.98.984-10.02 2.762a19.958 19.958 0 00-7.277 7.36l-.6-.333a20.644 20.644 0 017.528-7.613A20.888 20.888 0 0121.571 1a21.1 21.1 0 0110.415 2.656 20.654 20.654 0 017.683 7.46 20.408 20.408 0 012.882 10.268 20.595 20.595 0 01-2.68 10.32 20.643 20.643 0 01-7.528 7.613 20.886 20.886 0 01-10.363 2.856h-.17" stroke="#FFF" stroke-width=".3"/><g stroke="#004876" stroke-linecap="round" stroke-linejoin="round"><path d="M26.5 15.32v-3.18a23.577 23.577 0 00-2.66-.14c-2.632 0-4.435 1.656-4.435 4.7v2.8H16.5v3.555h2.905V32h3.562v-8.944h2.787l.443-3.555h-3.231v-2.45c0-1.027.277-1.73 1.709-1.73h1.826z"/></g></g></svg><svg viewBox="0 0 43 42" id="icon-instagram" xmlns="http://www.w3.org/2000/svg"><g fill="none" fill-rule="evenodd"><path d="M40.05 30.015a21.086 21.086 0 01-6.88 8.043 20.652 20.652 0 01-10.072 3.636 20.412 20.412 0 01-10.493-1.912l.296-.62a19.731 19.731 0 0010.145 1.848 19.967 19.967 0 009.738-3.515 20.384 20.384 0 006.725-7.926 20.188 20.188 0 001.91-10.216 19.959 19.959 0 00-3.425-9.768 19.925 19.925 0 00-7.834-6.706 19.732 19.732 0 00-10.145-1.847 19.968 19.968 0 00-9.738 3.515 20.396 20.396 0 00-6.724 7.926 20.192 20.192 0 00-1.91 10.216 19.958 19.958 0 003.425 9.768l-.563.392A20.644 20.644 0 01.962 22.746 20.888 20.888 0 012.938 12.18a21.1 21.1 0 016.953-8.196A20.654 20.654 0 0119.963.348c3.613-.303 7.24.358 10.493 1.911a20.595 20.595 0 018.1 6.934A20.643 20.643 0 0142.1 19.296a20.886 20.886 0 01-2.05 10.719" fill="#FFF"/><path d="M40.05 30.015a21.086 21.086 0 01-6.88 8.043 20.652 20.652 0 01-10.072 3.636 20.412 20.412 0 01-10.493-1.912l.296-.62a19.731 19.731 0 0010.145 1.848 19.967 19.967 0 009.738-3.515 20.384 20.384 0 006.725-7.926 20.188 20.188 0 001.91-10.216 19.959 19.959 0 00-3.425-9.768 19.925 19.925 0 00-7.834-6.706 19.732 19.732 0 00-10.145-1.847 19.968 19.968 0 00-9.738 3.515 20.396 20.396 0 00-6.724 7.926 20.192 20.192 0 00-1.91 10.216 19.958 19.958 0 003.425 9.768l-.563.392A20.644 20.644 0 01.962 22.746 20.888 20.888 0 012.938 12.18a21.1 21.1 0 016.953-8.196A20.654 20.654 0 0119.963.348c3.613-.303 7.24.358 10.493 1.911a20.595 20.595 0 018.1 6.934A20.643 20.643 0 0142.1 19.296a20.886 20.886 0 01-2.05 10.719" stroke="#FFF" stroke-width=".3"/><g fill="#FFF"><path d="M26.55 11.012a4.584 4.584 0 014.579 4.579v9.959a4.584 4.584 0 01-4.58 4.579h-9.958a4.585 4.585 0 01-4.58-4.58v-9.958a4.585 4.585 0 014.58-4.58zm0 1.206h-9.96a3.377 3.377 0 00-3.372 3.373v9.959a3.377 3.377 0 003.373 3.373h9.959a3.378 3.378 0 003.373-3.373V15.59a3.377 3.377 0 00-3.373-3.373zm-4.98 3.667a4.691 4.691 0 014.686 4.685 4.691 4.691 0 01-4.686 4.686 4.691 4.691 0 01-4.685-4.686 4.69 4.69 0 014.685-4.685zm0 1.206a3.484 3.484 0 00-3.48 3.48 3.484 3.484 0 003.48 3.48 3.484 3.484 0 003.48-3.48c0-1.92-1.561-3.48-3.48-3.48zm5.343-2.585a.735.735 0 11-.002 1.47.735.735 0 01.002-1.47z"/></g></g></svg><svg viewBox="0 0 43 43" id="icon-instagram-blue" xmlns="http://www.w3.org/2000/svg"><g fill="none" fill-rule="evenodd"><path d="M26.777 11.512a4.814 4.814 0 014.808 4.809v10.456a4.814 4.814 0 01-4.808 4.808H16.32a4.814 4.814 0 01-4.808-4.808V16.321a4.814 4.814 0 014.808-4.809zm0 1.267H16.32a3.546 3.546 0 00-3.541 3.542v10.456a3.546 3.546 0 003.541 3.542h10.457a3.546 3.546 0 003.542-3.542V16.321a3.546 3.546 0 00-3.542-3.542zm-5.228 3.85a4.926 4.926 0 014.92 4.92 4.926 4.926 0 01-4.92 4.92 4.926 4.926 0 01-4.92-4.92 4.925 4.925 0 014.92-4.92zm0 1.266a3.658 3.658 0 00-3.654 3.654 3.658 3.658 0 003.654 3.654 3.658 3.658 0 003.653-3.654 3.658 3.658 0 00-3.653-3.654zm5.61-2.714a.772.772 0 11-.002 1.543.772.772 0 01.002-1.543z" fill="#004876"/><path d="M26.405 1.562c3.46.927 6.64 2.729 9.208 5.218a20.652 20.652 0 015.49 9.194 20.412 20.412 0 01.127 10.664l-.665-.172a19.731 19.731 0 00-.123-10.311 19.967 19.967 0 00-5.308-8.889 20.384 20.384 0 00-9.063-5.088 20.188 20.188 0 00-10.393.074 19.959 19.959 0 00-8.935 5.226 19.925 19.925 0 00-5.088 8.97 19.732 19.732 0 00.123 10.31 19.968 19.968 0 005.308 8.89 20.396 20.396 0 009.064 5.087c3.404.883 6.997.857 10.392-.074a19.958 19.958 0 008.936-5.226l.492.477a20.644 20.644 0 01-9.242 5.406c-3.511.963-7.228.99-10.749.077a21.1 21.1 0 01-9.372-5.261 20.654 20.654 0 01-5.49-9.194A20.408 20.408 0 01.99 16.275a20.595 20.595 0 015.26-9.274 20.643 20.643 0 019.242-5.406 20.886 20.886 0 0110.913-.033" fill="#004876"/><path d="M26.405 1.562c3.46.927 6.64 2.729 9.208 5.218a20.652 20.652 0 015.49 9.194 20.412 20.412 0 01.127 10.664l-.665-.172a19.731 19.731 0 00-.123-10.311 19.967 19.967 0 00-5.308-8.889 20.384 20.384 0 00-9.063-5.088 20.188 20.188 0 00-10.393.074 19.959 19.959 0 00-8.935 5.226 19.925 19.925 0 00-5.088 8.97 19.732 19.732 0 00.123 10.31 19.968 19.968 0 005.308 8.89 20.396 20.396 0 009.064 5.087c3.404.883 6.997.857 10.392-.074a19.958 19.958 0 008.936-5.226l.492.477a20.644 20.644 0 01-9.242 5.406c-3.511.963-7.228.99-10.749.077a21.1 21.1 0 01-9.372-5.261 20.654 20.654 0 01-5.49-9.194A20.408 20.408 0 01.99 16.275a20.595 20.595 0 015.26-9.274 20.643 20.643 0 019.242-5.406 20.886 20.886 0 0110.913-.033" stroke="#FFF" stroke-width=".3"/></g></svg><svg viewBox="0 0 43 42" id="icon-linkedin" xmlns="http://www.w3.org/2000/svg"><g fill="none" fill-rule="evenodd"><path d="M40.05 30.015a21.086 21.086 0 01-6.88 8.043 20.652 20.652 0 01-10.072 3.636 20.412 20.412 0 01-10.493-1.912l.296-.62a19.731 19.731 0 0010.145 1.848 19.967 19.967 0 009.738-3.515 20.384 20.384 0 006.725-7.926 20.188 20.188 0 001.91-10.216 19.959 19.959 0 00-3.425-9.768 19.925 19.925 0 00-7.834-6.706 19.732 19.732 0 00-10.145-1.847 19.968 19.968 0 00-9.738 3.515 20.396 20.396 0 00-6.724 7.926 20.192 20.192 0 00-1.91 10.216 19.958 19.958 0 003.425 9.768l-.563.392A20.644 20.644 0 01.962 22.746 20.888 20.888 0 012.938 12.18a21.1 21.1 0 016.953-8.196A20.654 20.654 0 0119.963.348c3.613-.303 7.24.358 10.493 1.911a20.595 20.595 0 018.1 6.934A20.643 20.643 0 0142.1 19.296a20.886 20.886 0 01-2.05 10.719" fill="#FFF"/><path d="M40.05 30.015a21.086 21.086 0 01-6.88 8.043 20.652 20.652 0 01-10.072 3.636 20.412 20.412 0 01-10.493-1.912l.296-.62a19.731 19.731 0 0010.145 1.848 19.967 19.967 0 009.738-3.515 20.384 20.384 0 006.725-7.926 20.188 20.188 0 001.91-10.216 19.959 19.959 0 00-3.425-9.768 19.925 19.925 0 00-7.834-6.706 19.732 19.732 0 00-10.145-1.847 19.968 19.968 0 00-9.738 3.515 20.396 20.396 0 00-6.724 7.926 20.192 20.192 0 00-1.91 10.216 19.958 19.958 0 003.425 9.768l-.563.392A20.644 20.644 0 01.962 22.746 20.888 20.888 0 012.938 12.18a21.1 21.1 0 016.953-8.196A20.654 20.654 0 0119.963.348c3.613-.303 7.24.358 10.493 1.911a20.595 20.595 0 018.1 6.934A20.643 20.643 0 0142.1 19.296a20.886 20.886 0 01-2.05 10.719" stroke="#FFF" stroke-width=".3"/><g fill="#FFF"><path d="M16.094 15.676a2.548 2.548 0 002.546-2.545 2.548 2.548 0 00-2.546-2.546 2.548 2.548 0 00-2.545 2.546 2.548 2.548 0 002.545 2.545zm0-4.126c.872 0 1.58.71 1.58 1.58 0 .872-.708 1.58-1.58 1.58-.871 0-1.58-.708-1.58-1.58 0-.87.709-1.58 1.58-1.58zM26.758 15.917a4.697 4.697 0 00-2.919 1.027v-.303a.483.483 0 00-.482-.483H19.99a.483.483 0 00-.483.483v11.291c0 .267.216.483.483.483h3.546a.483.483 0 00.483-.483v-6.517c0-.805.655-1.46 1.46-1.46.805 0 1.46.655 1.46 1.46v6.517c0 .267.215.483.482.483h3.547a.483.483 0 00.482-.483V20.61a4.698 4.698 0 00-4.693-4.693zm3.728 11.533h-2.582v-6.035a2.428 2.428 0 00-2.424-2.425 2.427 2.427 0 00-2.425 2.425v6.035h-2.582V17.124h2.401v1.013a.482.482 0 00.872.285 3.747 3.747 0 013.012-1.54 3.732 3.732 0 013.728 3.728v6.84zM14.321 16.158a.483.483 0 00-.483.483v11.291c0 .267.216.483.483.483h3.547a.483.483 0 00.482-.483V16.641a.483.483 0 00-.482-.483H14.32zm3.064 11.292h-2.581V17.124h2.581V27.45z"/></g></g></svg><svg viewBox="0 0 43 43" id="icon-linkedin-blue" xmlns="http://www.w3.org/2000/svg"><g fill="none" fill-rule="evenodd"><g fill="#004876"><path d="M16.594 18.176a2.548 2.548 0 002.546-2.545 2.548 2.548 0 00-2.546-2.546 2.548 2.548 0 00-2.545 2.546 2.548 2.548 0 002.545 2.545zm0-4.126c.872 0 1.58.71 1.58 1.58 0 .872-.708 1.58-1.58 1.58-.871 0-1.58-.708-1.58-1.58 0-.87.709-1.58 1.58-1.58zM27.258 18.417a4.697 4.697 0 00-2.919 1.027v-.303a.483.483 0 00-.482-.483H20.49a.483.483 0 00-.483.483v11.291c0 .267.216.483.483.483h3.546a.483.483 0 00.483-.483v-6.517c0-.805.655-1.46 1.46-1.46.805 0 1.46.655 1.46 1.46v6.517c0 .267.215.483.482.483h3.547a.483.483 0 00.482-.483V23.11a4.698 4.698 0 00-4.693-4.693zm3.728 11.533h-2.582v-6.035a2.428 2.428 0 00-2.424-2.425 2.427 2.427 0 00-2.425 2.425v6.035h-2.582V19.624h2.401v1.013a.482.482 0 00.872.285 3.747 3.747 0 013.012-1.54 3.732 3.732 0 013.728 3.728v6.84zM14.821 18.658a.483.483 0 00-.483.483v11.291c0 .267.216.483.483.483h3.547a.483.483 0 00.482-.483V19.141a.483.483 0 00-.482-.483H14.82zm3.064 11.292h-2.581V19.624h2.581V29.95z"/></g><path d="M21.81 42.175c-3.583 0-7.12-.917-10.245-2.657a20.652 20.652 0 01-7.683-7.46A20.412 20.412 0 011 21.79l.687-.006a19.731 19.731 0 002.787 9.928 19.967 19.967 0 007.428 7.212 20.384 20.384 0 0010.072 2.57 20.188 20.188 0 0010.019-2.763 19.959 19.959 0 007.278-7.36 19.925 19.925 0 002.593-9.98 19.732 19.732 0 00-2.787-9.928 19.968 19.968 0 00-7.428-7.212 20.396 20.396 0 00-10.072-2.57c-3.516.03-6.98.984-10.02 2.762a19.958 19.958 0 00-7.277 7.36l-.6-.333a20.644 20.644 0 017.528-7.613A20.888 20.888 0 0121.571 1a21.1 21.1 0 0110.415 2.656 20.654 20.654 0 017.683 7.46 20.408 20.408 0 012.882 10.268 20.595 20.595 0 01-2.68 10.32 20.643 20.643 0 01-7.528 7.613 20.886 20.886 0 01-10.363 2.856h-.17" fill="#004876"/><path d="M21.81 42.175c-3.583 0-7.12-.917-10.245-2.657a20.652 20.652 0 01-7.683-7.46A20.412 20.412 0 011 21.79l.687-.006a19.731 19.731 0 002.787 9.928 19.967 19.967 0 007.428 7.212 20.384 20.384 0 0010.072 2.57 20.188 20.188 0 0010.019-2.763 19.959 19.959 0 007.278-7.36 19.925 19.925 0 002.593-9.98 19.732 19.732 0 00-2.787-9.928 19.968 19.968 0 00-7.428-7.212 20.396 20.396 0 00-10.072-2.57c-3.516.03-6.98.984-10.02 2.762a19.958 19.958 0 00-7.277 7.36l-.6-.333a20.644 20.644 0 017.528-7.613A20.888 20.888 0 0121.571 1a21.1 21.1 0 0110.415 2.656 20.654 20.654 0 017.683 7.46 20.408 20.408 0 012.882 10.268 20.595 20.595 0 01-2.68 10.32 20.643 20.643 0 01-7.528 7.613 20.886 20.886 0 01-10.363 2.856h-.17" stroke="#FFF" stroke-width=".3"/></g></svg><svg viewBox="0 0 9 11" id="icon-location" xmlns="http://www.w3.org/2000/svg"><path d="M4.453 0c1.069 0 2.074.4 2.83 1.129 1.397 1.346 1.571 3.879.37 5.42L4.454 11 1.25 6.543C.053 5.008.227 2.475 1.625 1.128A4.053 4.053 0 014.453 0zm0 .402a3.63 3.63 0 00-2.533 1.01C.658 2.628.502 4.915 1.587 6.308l2.866 3.986 2.862-3.98c1.09-1.399.934-3.686-.328-4.902A3.63 3.63 0 004.453.402zM4.49 2.41c.806 0 1.46.63 1.46 1.406 0 .775-.654 1.406-1.46 1.406-.805 0-1.46-.63-1.46-1.406 0-.775.655-1.406 1.46-1.406zm0 .401c-.575 0-1.043.451-1.043 1.005 0 .554.468 1.004 1.043 1.004.576 0 1.043-.45 1.043-1.004S5.066 2.812 4.49 2.812z" fill-rule="nonzero" fill="#004876"/></svg><svg viewBox="0 0 10 10" id="icon-time" xmlns="http://www.w3.org/2000/svg"><path d="M5 0a5 5 0 110 10A5 5 0 015 0zm0 .333a4.667 4.667 0 100 9.334A4.667 4.667 0 005 .333zm0 .5a4.167 4.167 0 110 8.333A4.167 4.167 0 015 .834zm0 .334a3.833 3.833 0 100 7.666 3.833 3.833 0 000-7.666zM5.167 8v.333h-.334V8h.334zm-1.812-.486l.288.167-.167.289-.288-.167.167-.289zm3.288 0l.167.288-.289.167-.166-.289.288-.166zm1.038-1.158l.288.167-.166.289-.289-.167.167-.289zm-5.362 0l.166.289-.289.166-.166-.288.289-.167zm2.848-4.023V5c0 .059-.031.113-.081.143l-1.667 1-.171-.286 1.585-.951V2.333h.334zM2 4.833v.334h-.333v-.334H2zm6.333 0v.334H8v-.334h.333zM2.196 3.19l.29.167-.168.288-.288-.166.166-.289zm5.607 0l.166.289-.288.166-.167-.288.289-.167zM3.477 2.03l.167.289-.289.166-.166-.288.288-.167zm3.045 0l.289.167-.167.289-.289-.167.167-.289zm-1.355-.363V2h-.334v-.333h.334z" fill="#004876" fill-rule="evenodd"/></svg><svg viewBox="0 0 12 10" id="icon-work" xmlns="http://www.w3.org/2000/svg"><path d="M11.27 2.335H9.517l-.19-.933A1.746 1.746 0 007.62.011H4.657a1.746 1.746 0 00-1.705 1.392l-.19.932H1.007a.507.507 0 00-.507.506v6.642c0 .28.227.506.507.506H11.27c.28 0 .506-.227.507-.506V2.84a.507.507 0 00-.507-.506zm-8.016-.87A1.437 1.437 0 014.657.318H7.62c.68.002 1.265.48 1.403 1.145l.178.871h-.405l-.161-.792A1.039 1.039 0 007.62.715H4.657a1.039 1.039 0 00-1.014.828l-.162.792h-.405l.178-.87zm5.228.87H3.796l.149-.73a.73.73 0 01.712-.581H7.62a.73.73 0 01.713.581l.149.73zm-7.674.506c0-.109.09-.198.199-.198H11.27c.11 0 .198.089.198.198v1.7c0 .791-.641 1.432-1.432 1.433H2.24C1.45 5.973.81 5.332.808 4.542v-1.7zm7.517 3.44h.815v.9c0 .06-.05.11-.11.11h-.595a.11.11 0 01-.11-.11v-.9zm-5.187 0h.815v.9c0 .06-.05.11-.11.11h-.595a.11.11 0 01-.11-.11v-.9zm8.331 3.202c0 .11-.089.198-.198.198H1.007a.199.199 0 01-.199-.198V5.529c.325.471.86.753 1.432.753h.59v.899c0 .23.187.418.418.418h.594a.419.419 0 00.419-.418v-.9h3.755v.9c0 .23.188.418.419.418h.595a.419.419 0 00.418-.418v-.9h.59c.572 0 1.107-.281 1.431-.752v3.954z" fill="#004876" fill-rule="evenodd"/></svg></defs></svg>