<?xml version="1.0" encoding="UTF-8"?>
<svg width="221px" height="222px" viewBox="0 0 221 222" version="1.1" xmlns="http://www.w3.org/2000/svg" xmlns:xlink="http://www.w3.org/1999/xlink">
    <!-- Generator: Sketch 64 (93537) - https://sketch.com -->
    <title>Combined Shape</title>
    <desc>Created with Sketch.</desc>
    <g id="New" stroke="none" stroke-width="1" fill="none" fill-rule="evenodd" opacity="0.400000006">
        <g id="About" transform="translate(-134.000000, -3470.000000)" fill="#004876">
            <g id="Group-12" transform="translate(0.000000, 2910.000000)">
                <g id="Group-9" transform="translate(96.000000, 517.000000)">
                    <g id="Group-4">
                        <g id="Group" transform="translate(152.000000, 152.000000) rotate(-240.000000) translate(-152.000000, -152.000000) translate(41.000000, 41.000000)">
                            <path d="M15.3758259,49.2762794 L15.5607231,49.3800862 C5.67696727,66.9635607 0.539775364,86.9180172 0.704707176,107.086194 C0.869638988,127.235179 6.39138244,147.088445 16.6753149,164.499199 C26.9592474,181.910826 41.6798457,196.332118 59.2476878,206.205104 C76.5577155,215.933283 96.1698441,221.06256 116.018954,221.063432 C116.33406,221.063432 116.645694,221.061687 116.959933,221.05907 C137.111996,220.895073 156.967182,215.372377 174.380509,205.090271 L174.488149,205.27346 C157.043572,215.574757 137.151059,221.107048 116.961669,221.27279 C116.648299,221.276279 116.333192,221.276279 116.018954,221.276279 C96.1316493,221.276279 76.4865344,216.137407 59.1435204,206.390909 C41.5435599,196.499605 26.7943156,182.05127 16.4921538,164.60824 C6.18999201,147.16521 0.656963757,127.274433 0.492031945,107.087938 C0.326232071,86.8822518 5.47297266,66.8911577 15.3758259,49.2762794 Z M116.453465,0.75 C134.558868,0.75 152.442151,5.42840993 168.23091,14.3030004 C184.253936,23.3092665 197.680064,36.4637518 207.059439,52.3459289 C216.437946,68.2272339 221.475564,86.3365609 221.625669,104.715343 C221.775773,123.112438 217.090424,141.3142 208.076333,157.351597 C199.070051,173.37417 185.9155,186.800727 170.033902,196.180219 C154.152304,205.55884 136.042562,210.595652 117.663846,210.74564 C117.378387,210.75 117.090325,210.75 116.804866,210.75 C98.6994622,210.75 80.816179,206.07159 65.0274203,197.197 C49.0052618,188.190733 35.5782661,175.035376 26.1988914,159.154071 C16.8203843,143.272766 11.7836341,125.163439 11.6326617,106.783785 C11.482557,88.3866898 16.1679061,70.1858003 25.1828648,54.1484029 C34.1882792,38.12583 47.3436982,24.6992731 63.2244285,15.3206526 C79.1068942,5.94116017 97.2157683,0.904348286 115.595352,0.754360121 C115.879943,0.75 116.168873,0.75 116.453465,0.75 Z M116.453465,1.17554782 C116.168005,1.17554782 115.883414,1.17554782 115.598822,1.17903591 C97.2938575,1.32902408 79.2578666,6.3457794 63.4413428,15.6869028 C47.6239515,25.0271542 34.5223272,38.3996456 25.5533544,54.3568167 C16.5748373,70.3296843 11.9085767,88.4573238 12.0586814,106.781169 C12.2079185,125.084957 17.2247126,143.121034 26.5659104,158.938681 C35.9062405,174.755456 49.2785738,187.856748 65.235658,196.825517 C80.9602101,205.664355 98.7740807,210.324452 116.804866,210.324452 C117.090325,210.324452 117.374917,210.324452 117.660376,210.320092 C135.964473,210.170976 153.999596,205.155093 169.816987,195.813097 C185.634379,186.471974 198.736003,173.100354 207.704976,157.143183 C216.683493,141.170316 221.349754,123.041804 221.200516,104.719703 C221.050412,86.415043 216.033618,68.3789662 206.69242,52.5621909 C197.35209,36.7445436 183.979756,23.6432518 168.022672,14.6736107 C152.29812,5.83564524 134.485117,1.17554782 116.453465,1.17554782 Z M114.816776,11.2153903 L114.822001,11.8522725 C98.2949426,11.9862613 82.0091108,16.4888094 67.727113,24.8735543 C53.445986,33.2582993 41.6163116,45.2607438 33.5173738,59.5836318 C25.4105983,73.9204408 21.197409,90.1922578 21.3323913,106.638956 C21.4673735,123.069124 25.9966827,139.257415 34.43177,153.455015 C42.8659864,167.652615 54.9394998,179.412313 69.3477714,187.462086 C83.5461673,195.396141 99.6299611,199.578508 115.911439,199.578508 C116.16834,199.578508 116.426113,199.577638 116.683886,199.575898 L116.689111,200.21191 C116.430467,200.21539 116.169211,200.21539 115.911439,200.21539 C99.5193627,200.21539 83.3284539,196.005182 69.0333933,188.017183 C54.527586,179.912596 42.3713416,168.072853 33.8796489,153.778677 C25.388827,139.485371 20.8281671,123.186582 20.6923139,106.644177 C20.5555899,90.0869809 24.7983883,73.7055366 32.9591567,59.2712812 C41.1129583,44.8509467 53.0227511,32.7667168 67.4014137,24.3254181 C81.7809472,15.8841193 98.1765066,11.3511193 114.816776,11.2153903 Z" id="Combined-Shape"></path>
                        </g>
                    </g>
                </g>
            </g>
        </g>
    </g>
</svg>