<?xml version="1.0" encoding="UTF-8"?>
<svg width="485px" height="272px" viewBox="0 0 485 272" version="1.1" xmlns="http://www.w3.org/2000/svg" xmlns:xlink="http://www.w3.org/1999/xlink">
    <!-- Generator: Sketch 64 (93537) - https://sketch.com -->
    <title>Group</title>
    <desc>Created with Sketch.</desc>
    <g id="New" stroke="none" stroke-width="1" fill="none" fill-rule="evenodd" opacity="0.200000003">
        <g id="previous-Projects-pop-up" transform="translate(-606.000000, -458.000000)" fill="#004876">
            <g id="Group" transform="translate(841.000000, 696.000000) scale(-1, 1) rotate(-240.000000) translate(-841.000000, -696.000000) translate(599.000000, 454.000000)">
                <path d="M33.6147069,106.629941 L34.0199279,106.857471 C12.3586793,145.398046 1.10000473,189.13549 1.46146944,233.341379 C1.82293415,277.505203 13.9243923,321.020852 36.4626684,359.182847 C59.0009445,397.346754 91.2626214,428.956259 129.764321,450.596495 C167.700994,471.919335 210.682953,483.162009 254.18428,483.163921 C254.874868,483.163921 255.557846,483.160097 256.246531,483.154361 C300.411812,482.794901 343.926456,470.689907 382.08952,448.152934 L382.325423,448.554458 C344.093871,471.133495 300.497422,483.259522 256.250336,483.622806 C255.563553,483.630454 254.872965,483.630454 254.18428,483.630454 C210.599245,483.630454 167.544993,472.366748 129.536027,451.003755 C90.9639374,429.323367 58.6394798,397.65459 36.0612523,359.42185 C13.4830248,321.18911 1.35683492,277.591244 0.995370204,233.345203 C0.632003044,189.057097 11.9116046,145.239349 33.6147069,106.629941 Z M253.376121,0.630453819 C293.074459,0.630453819 332.28577,10.8884379 366.904578,30.3470593 C402.037045,50.0943956 431.475493,78.9372082 452.040932,113.760818 C472.60447,148.582515 483.65007,188.289422 483.979194,228.587142 C484.308317,268.925016 474.035109,308.834597 454.270599,343.998545 C434.523211,379.12999 405.680229,408.569352 370.85786,429.135033 C336.035491,449.698802 296.327641,460.742626 256.030033,461.071493 C255.404128,461.081053 254.772516,461.081053 254.146612,461.081053 C214.448274,461.081053 175.236962,450.823069 140.618155,431.364448 C105.48759,411.617111 76.0472399,382.772387 55.4818001,347.950689 C34.9182628,313.128992 23.8745646,273.422085 23.543539,233.122452 C23.2144159,192.784579 33.4876235,152.87691 53.254036,117.712962 C72.9995216,82.5815172 101.844406,53.1421545 136.664872,32.5783859 C171.489144,12.0127053 211.195091,0.968881252 251.494602,0.640013916 C252.118604,0.630453819 252.752119,0.630453819 253.376121,0.630453819 Z M253.376121,1.56351928 C252.750216,1.56351928 252.126214,1.56351928 251.502212,1.57116736 C211.366311,1.9000347 171.820169,12.8998823 137.140484,33.3814341 C102.458896,53.8610738 73.7319633,83.1818913 54.0663804,118.169934 C34.3798707,153.192394 24.1485168,192.939453 24.4776399,233.116716 C24.8048606,273.250004 35.8048026,312.796301 56.2865347,347.478421 C76.7663644,382.158628 106.08686,410.884808 141.074742,430.549927 C175.552768,449.930156 214.611884,460.147988 254.146612,460.147988 C254.772516,460.147988 255.396518,460.147988 256.022423,460.138427 C296.156421,459.811472 335.700661,448.813537 370.382249,428.330073 C405.063837,407.848521 433.790769,378.529616 453.456352,343.541573 C473.142862,308.519113 483.374216,268.770142 483.046995,228.596703 C482.717872,188.461503 471.71793,148.915206 451.236198,114.234998 C430.756368,79.5528785 401.435873,50.8266991 366.447991,31.1596675 C331.969964,11.7813509 292.912751,1.56351928 253.376121,1.56351928 Z M251.716808,23.1876939 L251.728222,24.5872921 C215.623605,24.881743 180.045965,34.7764434 148.845853,53.2025744 C117.647643,71.6287053 91.8048185,98.0050129 74.112072,129.480676 C56.4022034,160.986932 47.1981704,196.745519 47.4930495,232.888421 C47.7879286,268.994996 57.6825495,304.570028 76.1096401,335.770361 C94.5348283,366.970694 120.910338,392.813548 152.386304,410.503551 C183.403782,427.939256 218.540054,437.130333 254.108182,437.130333 C254.669404,437.130333 255.232528,437.128421 255.795652,437.124597 L255.807066,438.522283 C255.24204,438.529931 254.671306,438.529931 254.108182,438.529931 C218.298444,438.529931 182.92817,429.27767 151.699521,411.72342 C120.010481,393.912959 93.454239,367.894199 74.9034894,336.481632 C56.3546423,305.070978 46.3915333,269.253118 46.0947518,232.899893 C45.7960678,196.514164 55.064784,160.514663 72.8926042,128.794261 C90.7052048,97.1044517 116.723054,70.5484143 148.134338,51.9980021 C179.547524,33.4475899 215.364872,23.4859689 251.716808,23.1876939 Z" id="Combined-Shape"></path>
            </g>
        </g>
    </g>
</svg>