<?xml version="1.0" encoding="UTF-8"?>
<svg width="172px" height="173px" viewBox="0 0 172 173" version="1.1" xmlns="http://www.w3.org/2000/svg" xmlns:xlink="http://www.w3.org/1999/xlink">
    <!-- Generator: Sketch 64 (93537) - https://sketch.com -->
    <title>Group 3 Copy 2</title>
    <desc>Created with Sketch.</desc>
    <g id="New" stroke="none" stroke-width="1" fill="none" fill-rule="evenodd" opacity="0.400000006">
        <g id="Home-" transform="translate(-1122.000000, -1572.000000)" fill="#DBDCDD">
            <g id="Group-3" transform="translate(0.000000, 1161.000000)">
                <g id="Group-3-Copy-2" style="mix-blend-mode: multiply;" transform="translate(1096.000000, 384.000000)">
                    <path d="M112.211758,198.388166 C97.3708957,198.388166 82.7124225,194.593061 69.7709586,187.3923 C56.6354888,180.08522 45.6294359,169.411777 37.9400688,156.525292 C30.2518634,143.638807 26.1231414,128.94491 26,114.031441 L28.8473544,114.008329 C28.965849,128.424874 32.957489,142.632249 40.3924414,155.092305 C47.826232,167.551204 58.4675076,177.871024 71.1661738,184.93542 C83.8799424,192.007906 98.3014265,195.688603 112.891359,195.567261 C127.459219,195.449386 141.812162,191.498271 154.399304,184.139188 C166.987607,176.78126 177.413966,166.248804 184.552682,153.680119 C191.697207,141.09641 195.41236,126.815074 195.292703,112.380039 C195.174209,97.9623381 191.181407,83.7549627 183.747616,71.2960629 C176.313826,58.8371632 165.67255,48.5173436 152.972722,41.4517919 C140.260115,34.3793063 125.822367,30.7009205 111.247537,30.8211065 C96.6808392,30.9389812 82.327896,34.8900969 69.7395923,42.2480243 C57.1524504,49.6059517 46.7249297,60.1395637 39.5873754,72.7082488 L37.1059601,71.3272651 C44.4886354,58.3263725 55.2728015,47.4322024 68.2909384,39.821191 C81.3113987,32.2113353 96.1569074,28.1250103 111.224303,28.002513 C126.31958,27.8881051 141.223174,31.6820545 154.369099,38.9949121 C167.503407,46.3031471 178.510622,56.976591 186.198827,69.8630757 C193.888194,82.7495604 198.016916,97.4423024 198.140058,112.356926 C198.264361,127.283107 194.423743,142.049809 187.034098,155.061102 C179.651422,168.061995 168.867256,178.956165 155.847958,186.567177 C142.828659,194.177032 127.98315,198.263357 112.915755,198.385855 C112.681089,198.388166 112.445262,198.388166 112.211758,198.388166" id="Fill-22" transform="translate(112.071491, 113.194083) rotate(113.000000) translate(-112.071491, -113.194083) "></path>
                    <g id="Group-19" transform="translate(112.482110, 113.346860) rotate(-125.000000) translate(-112.482110, -113.346860) translate(39.482110, 41.346860)">
                        <path d="M72.7058321,143.693954 C60.1930397,143.693954 47.830108,140.492845 36.916992,134.422295 C25.838913,128.258138 16.5568396,119.256898 10.0721671,108.389308 C3.58865633,97.5217173 0.105845837,85.1298443 0.00245353047,72.5519141 C-0.102100487,59.9658945 3.13675063,47.5127729 9.36817007,36.5400196 C15.593781,25.5765114 24.6888188,16.3880584 35.6681523,9.97081785 C46.6474859,3.55242166 59.1684103,0.10631841 71.8763703,0.00231126978 C72.0726995,4.26325641e-14 72.2713521,4.26325641e-14 72.468843,4.26325641e-14 C84.9839589,4.26325641e-14 97.3445672,3.20110865 108.258845,9.27281437 L106.444252,12.4669892 C95.9214709,6.61254285 83.9872106,3.57668999 71.9065748,3.66682951 C59.8503348,3.76505848 47.970675,7.03550522 37.5512863,13.1257011 C27.1318976,19.215897 18.5027061,27.932851 12.5942424,38.3358763 C6.67997011,48.7516136 3.60492029,60.5737585 3.70366575,72.5218676 C3.80241121,84.4549535 7.10747987,96.2135386 13.2599029,106.526424 C19.4134877,116.838154 28.2204211,125.379452 38.7304233,131.226965 C49.0905647,136.991271 60.827334,140.029435 72.7058321,140.029435 C72.8940294,140.029435 73.0810649,140.029435 73.2692621,140.027124 L73.2994666,143.691642 C73.1019757,143.693954 72.9033231,143.693954 72.7058321,143.693954" id="Fill-24"></path>
                        <path d="M141.471474,71.1722017 C141.37389,59.2391158 138.068822,47.4805307 131.915237,37.1688006 L135.102973,35.3047615 C141.587645,46.172352 145.069294,58.564225 145.173848,71.1421551 L141.471474,71.1722017 Z" id="Fill-26"></path>
                    </g>
                </g>
            </g>
        </g>
    </g>
</svg>